<svg xmlns="http://www.w3.org/2000/svg" viewBox="0 0 512 512">
<path d="M 68.0,207.5 L 67.0,207.5 L 66.0,207.5 L 65.0,207.5 L 64.0,207.5 L 63.0,207.5 L 62.0,207.5 L 61.0,207.5 L 60.0,207.5 L 59.0,207.5 L 58.5,207.0 L 58.0,206.5 L 57.0,206.5 L 56.5,206.0 L 56.0,205.5 L 55.0,205.5 L 54.5,205.0 L 54.0,204.5 L 53.5,204.0 L 53.0,203.5 L 52.0,203.5 L 51.5,203.0 L 51.5,202.0 L 51.0,201.5 L 50.5,201.0 L 50.0,200.5 L 49.5,200.0 L 49.5,199.0 L 49.0,198.5 L 48.5,198.0 L 48.5,197.0 L 48.0,196.5 L 47.5,196.0 L 47.5,195.0 L 47.5,194.0 L 47.5,193.0 L 47.5,192.0 L 47.5,191.0 L 47.5,190.0 L 47.5,189.0 L 47.5,188.0 L 47.5,187.0 L 47.5,186.0 L 47.5,185.0 L 47.5,184.0 L 47.5,183.0 L 47.5,182.0 L 47.5,181.0 L 47.5,180.0 L 47.5,179.0 L 47.5,178.0 L 47.5,177.0 L 47.5,176.0 L 47.5,175.0 L 47.5,174.0 L 47.5,173.0 L 47.5,172.0 L 47.5,171.0 L 47.5,170.0 L 47.5,169.0 L 47.5,168.0 L 47.5,167.0 L 47.5,166.0 L 47.5,165.0 L 47.5,164.0 L 47.5,163.0 L 47.5,162.0 L 47.5,161.0 L 47.5,160.0 L 47.5,159.0 L 47.5,158.0 L 47.5,157.0 L 47.5,156.0 L 47.5,155.0 L 47.5,154.0 L 47.5,153.0 L 47.5,152.0 L 47.5,151.0 L 47.5,150.0 L 47.5,149.0 L 47.5,148.0 L 47.5,147.0 L 47.5,146.0 L 47.5,145.0 L 47.5,144.0 L 47.5,143.0 L 47.5,142.0 L 47.5,141.0 L 47.5,140.0 L 47.5,139.0 L 47.5,138.0 L 47.5,137.0 L 47.5,136.0 L 47.5,135.0 L 47.5,134.0 L 47.5,133.0 L 47.5,132.0 L 47.5,131.0 L 47.5,130.0 L 47.5,129.0 L 47.5,128.0 L 47.5,127.0 L 47.5,126.0 L 47.5,125.0 L 47.5,124.0 L 47.5,123.0 L 47.5,122.0 L 47.5,121.0 L 47.5,120.0 L 47.5,119.0 L 47.5,118.0 L 47.5,117.0 L 47.5,116.0 L 47.5,115.0 L 47.5,114.0 L 47.5,113.0 L 47.5,112.0 L 47.5,111.0 L 47.5,110.0 L 47.5,109.0 L 47.5,108.0 L 47.5,107.0 L 47.5,106.0 L 47.5,105.0 L 47.5,104.0 L 47.5,103.0 L 47.5,102.0 L 47.5,101.0 L 47.5,100.0 L 47.5,99.0 L 47.5,98.0 L 47.5,97.0 L 47.5,96.0 L 47.5,95.0 L 47.5,94.0 L 47.5,93.0 L 47.5,92.0 L 47.5,91.0 L 47.5,90.0 L 47.5,89.0 L 47.5,88.0 L 47.5,87.0 L 47.5,86.0 L 47.5,85.0 L 47.5,84.0 L 47.5,83.0 L 47.5,82.0 L 47.5,81.0 L 47.5,80.0 L 47.5,79.0 L 47.5,78.0 L 47.5,77.0 L 48.0,76.5 L 48.5,76.0 L 48.5,75.0 L 48.5,74.0 L 49.0,73.5 L 49.5,73.0 L 49.5,72.0 L 49.5,71.0 L 50.0,70.5 L 50.5,70.0 L 50.5,69.0 L 51.0,68.5 L 51.5,68.0 L 51.5,67.0 L 52.0,66.5 L 52.5,66.0 L 52.5,65.0 L 53.0,64.5 L 53.5,64.0 L 54.0,63.5 L 54.5,63.0 L 54.5,62.0 L 55.0,61.5 L 55.5,61.0 L 56.0,60.5 L 56.5,60.0 L 57.0,59.5 L 57.5,59.0 L 58.0,58.5 L 58.5,58.0 L 59.0,57.5 L 59.5,57.0 L 60.0,56.5 L 60.5,56.0 L 61.0,55.5 L 61.5,55.0 L 62.0,54.5 L 63.0,54.5 L 63.5,54.0 L 64.0,53.5 L 64.5,53.0 L 65.0,52.5 L 66.0,52.5 L 66.5,52.0 L 67.0,51.5 L 68.0,51.5 L 68.5,51.0 L 69.0,50.5 L 70.0,50.5 L 70.5,50.0 L 71.0,49.5 L 72.0,49.5 L 73.0,49.5 L 73.5,49.0 L 74.0,48.5 L 75.0,48.5 L 76.0,48.5 L 76.5,48.0 L 77.0,47.5 L 78.0,47.5 L 79.0,47.5 L 80.0,47.5 L 81.0,47.5 L 82.0,47.5 L 83.0,47.5 L 84.0,47.5 L 85.0,47.5 L 86.0,47.5 L 87.0,47.5 L 88.0,47.5 L 89.0,47.5 L 90.0,47.5 L 91.0,47.5 L 92.0,47.5 L 93.0,47.5 L 94.0,47.5 L 95.0,47.5 L 96.0,47.5 L 97.0,47.5 L 98.0,47.5 L 99.0,47.5 L 100.0,47.5 L 101.0,47.5 L 102.0,47.5 L 103.0,47.5 L 104.0,47.5 L 105.0,47.5 L 106.0,47.5 L 107.0,47.5 L 108.0,47.5 L 109.0,47.5 L 110.0,47.5 L 111.0,47.5 L 112.0,47.5 L 113.0,47.5 L 114.0,47.5 L 115.0,47.5 L 116.0,47.5 L 117.0,47.5 L 118.0,47.5 L 119.0,47.5 L 120.0,47.5 L 121.0,47.5 L 122.0,47.5 L 123.0,47.5 L 124.0,47.5 L 125.0,47.5 L 126.0,47.5 L 127.0,47.5 L 128.0,47.5 L 129.0,47.5 L 130.0,47.5 L 131.0,47.5 L 132.0,47.5 L 133.0,47.5 L 134.0,47.5 L 135.0,47.5 L 136.0,47.5 L 137.0,47.5 L 138.0,47.5 L 139.0,47.5 L 140.0,47.5 L 141.0,47.5 L 142.0,47.5 L 143.0,47.5 L 144.0,47.5 L 145.0,47.5 L 146.0,47.5 L 147.0,47.5 L 148.0,47.5 L 149.0,47.5 L 150.0,47.5 L 151.0,47.5 L 152.0,47.5 L 153.0,47.5 L 154.0,47.5 L 155.0,47.5 L 156.0,47.5 L 157.0,47.5 L 158.0,47.5 L 159.0,47.5 L 160.0,47.5 L 161.0,47.5 L 162.0,47.5 L 163.0,47.5 L 164.0,47.5 L 165.0,47.5 L 166.0,47.5 L 167.0,47.5 L 168.0,47.5 L 169.0,47.5 L 170.0,47.5 L 171.0,47.5 L 172.0,47.5 L 173.0,47.5 L 174.0,47.5 L 175.0,47.5 L 176.0,47.5 L 177.0,47.5 L 178.0,47.5 L 179.0,47.5 L 180.0,47.5 L 181.0,47.5 L 182.0,47.5 L 183.0,47.5 L 184.0,47.5 L 185.0,47.5 L 186.0,47.5 L 187.0,47.5 L 188.0,47.5 L 189.0,47.5 L 190.0,47.5 L 191.0,47.5 L 192.0,47.5 L 193.0,47.5 L 194.0,47.5 L 195.0,47.5 L 196.0,47.5 L 196.5,48.0 L 197.0,48.5 L 198.0,48.5 L 199.0,48.5 L 199.5,49.0 L 200.0,49.5 L 200.5,50.0 L 201.0,50.5 L 202.0,50.5 L 202.5,51.0 L 203.0,51.5 L 203.5,52.0 L 204.0,52.5 L 204.5,53.0 L 204.5,54.0 L 205.0,54.5 L 205.5,55.0 L 206.0,55.5 L 206.5,56.0 L 206.5,57.0 L 206.5,58.0 L 207.0,58.5 L 207.5,59.0 L 207.5,60.0 L 207.5,61.0 L 207.5,62.0 L 207.5,63.0 L 207.5,64.0 L 207.5,65.0 L 207.5,66.0 L 207.5,67.0 L 207.5,68.0 L 207.0,68.5 L 206.5,69.0 L 206.5,70.0 L 206.5,71.0 L 206.0,71.5 L 205.5,72.0 L 205.0,72.5 L 204.5,73.0 L 204.5,74.0 L 204.0,74.5 L 203.5,75.0 L 203.0,75.5 L 202.5,76.0 L 202.0,76.5 L 201.0,76.5 L 200.5,77.0 L 200.0,77.5 L 199.5,78.0 L 199.0,78.5 L 198.0,78.5 L 197.0,78.5 L 196.5,79.0 L 196.0,79.5 L 195.0,79.5 L 194.0,79.5 L 193.0,79.5 L 192.0,79.5 L 191.0,79.5 L 190.0,79.5 L 189.0,79.5 L 188.0,79.5 L 187.0,79.5 L 186.0,79.5 L 185.0,79.5 L 184.0,79.5 L 183.0,79.5 L 182.0,79.5 L 181.0,79.5 L 180.0,79.5 L 179.0,79.5 L 178.0,79.5 L 177.0,79.5 L 176.0,79.5 L 175.0,79.5 L 174.0,79.5 L 173.0,79.5 L 172.0,79.5 L 171.0,79.5 L 170.0,79.5 L 169.0,79.5 L 168.0,79.5 L 167.0,79.5 L 166.0,79.5 L 165.0,79.5 L 164.0,79.5 L 163.0,79.5 L 162.0,79.5 L 161.0,79.5 L 160.0,79.5 L 159.0,79.5 L 158.0,79.5 L 157.0,79.5 L 156.0,79.5 L 155.0,79.5 L 154.0,79.5 L 153.0,79.5 L 152.0,79.5 L 151.0,79.5 L 150.0,79.5 L 149.0,79.5 L 148.0,79.5 L 147.0,79.5 L 146.0,79.5 L 145.0,79.5 L 144.0,79.5 L 143.0,79.5 L 142.0,79.5 L 141.0,79.5 L 140.0,79.5 L 139.0,79.5 L 138.0,79.5 L 137.0,79.5 L 136.0,79.5 L 135.0,79.5 L 134.0,79.5 L 133.0,79.5 L 132.0,79.5 L 131.0,79.5 L 130.0,79.5 L 129.0,79.5 L 128.0,79.5 L 127.0,79.5 L 126.0,79.5 L 125.0,79.5 L 124.0,79.5 L 123.0,79.5 L 122.0,79.5 L 121.0,79.5 L 120.0,79.5 L 119.0,79.5 L 118.0,79.5 L 117.0,79.5 L 116.0,79.5 L 115.0,79.5 L 114.0,79.5 L 113.0,79.5 L 112.0,79.5 L 111.0,79.5 L 110.0,79.5 L 109.0,79.5 L 108.0,79.5 L 107.0,79.5 L 106.0,79.5 L 105.0,79.5 L 104.0,79.5 L 103.0,79.5 L 102.0,79.5 L 101.0,79.5 L 100.0,79.5 L 99.0,79.5 L 98.0,79.5 L 97.0,79.5 L 96.0,79.5 L 95.0,79.5 L 94.0,79.5 L 93.0,79.5 L 92.0,79.5 L 91.0,79.5 L 90.0,79.5 L 89.0,79.5 L 88.0,79.5 L 87.0,79.5 L 86.0,79.5 L 85.0,79.5 L 84.5,80.0 L 84.0,80.5 L 83.0,80.5 L 82.0,80.5 L 81.5,81.0 L 81.0,81.5 L 80.5,82.0 L 80.5,83.0 L 80.5,84.0 L 80.0,84.5 L 79.5,85.0 L 79.5,86.0 L 79.5,87.0 L 79.5,88.0 L 79.5,89.0 L 79.5,90.0 L 79.5,91.0 L 79.5,92.0 L 79.5,93.0 L 79.5,94.0 L 79.5,95.0 L 79.5,96.0 L 79.5,97.0 L 79.5,98.0 L 79.5,99.0 L 79.5,100.0 L 79.5,101.0 L 79.5,102.0 L 79.5,103.0 L 79.5,104.0 L 79.5,105.0 L 79.5,106.0 L 79.5,107.0 L 79.5,108.0 L 79.5,109.0 L 79.5,110.0 L 79.5,111.0 L 79.5,112.0 L 79.5,113.0 L 79.5,114.0 L 79.5,115.0 L 79.5,116.0 L 79.5,117.0 L 79.5,118.0 L 79.5,119.0 L 79.5,120.0 L 79.5,121.0 L 79.5,122.0 L 79.5,123.0 L 79.5,124.0 L 79.5,125.0 L 79.5,126.0 L 79.5,127.0 L 79.5,128.0 L 79.5,129.0 L 79.5,130.0 L 79.5,131.0 L 79.5,132.0 L 79.5,133.0 L 79.5,134.0 L 79.5,135.0 L 79.5,136.0 L 79.5,137.0 L 79.5,138.0 L 79.5,139.0 L 79.5,140.0 L 79.5,141.0 L 79.5,142.0 L 79.5,143.0 L 79.5,144.0 L 79.5,145.0 L 79.5,146.0 L 79.5,147.0 L 79.5,148.0 L 79.5,149.0 L 79.5,150.0 L 79.5,151.0 L 79.5,152.0 L 79.5,153.0 L 79.5,154.0 L 79.5,155.0 L 79.5,156.0 L 79.5,157.0 L 79.5,158.0 L 79.5,159.0 L 79.5,160.0 L 79.5,161.0 L 79.5,162.0 L 79.5,163.0 L 79.5,164.0 L 79.5,165.0 L 79.5,166.0 L 79.5,167.0 L 79.5,168.0 L 79.5,169.0 L 79.5,170.0 L 79.5,171.0 L 79.5,172.0 L 79.5,173.0 L 79.5,174.0 L 79.5,175.0 L 79.5,176.0 L 79.5,177.0 L 79.5,178.0 L 79.5,179.0 L 79.5,180.0 L 79.5,181.0 L 79.5,182.0 L 79.5,183.0 L 79.5,184.0 L 79.5,185.0 L 79.5,186.0 L 79.5,187.0 L 79.5,188.0 L 79.5,189.0 L 79.5,190.0 L 79.5,191.0 L 79.5,192.0 L 79.5,193.0 L 79.5,194.0 L 79.5,195.0 L 79.5,196.0 L 79.0,196.5 L 78.5,197.0 L 78.5,198.0 L 78.0,198.5 L 77.5,199.0 L 77.5,200.0 L 77.0,200.5 L 76.5,201.0 L 76.0,201.5 L 75.5,202.0 L 75.5,203.0 L 75.0,203.5 L 74.0,203.5 L 73.5,204.0 L 73.0,204.5 L 72.5,205.0 L 72.0,205.5 L 71.0,205.5 L 70.5,206.0 L 70.0,206.5 L 69.0,206.5 L 68.5,207.0 L 68.0,207.5 Z" fill="#EF314C"/>
<path d="M 452.0,207.5 L 451.0,207.5 L 450.0,207.5 L 449.0,207.5 L 448.0,207.5 L 447.0,207.5 L 446.0,207.5 L 445.0,207.5 L 444.0,207.5 L 443.0,207.5 L 442.5,207.0 L 442.0,206.5 L 441.0,206.5 L 440.0,206.5 L 439.5,206.0 L 439.0,205.5 L 438.5,205.0 L 438.0,204.5 L 437.0,204.5 L 436.5,204.0 L 436.0,203.5 L 435.5,203.0 L 435.0,202.5 L 434.5,202.0 L 434.5,201.0 L 434.0,200.5 L 433.5,200.0 L 433.0,199.5 L 432.5,199.0 L 432.5,198.0 L 432.5,197.0 L 432.0,196.5 L 431.5,196.0 L 431.5,195.0 L 431.5,194.0 L 431.5,193.0 L 431.5,192.0 L 431.5,191.0 L 431.5,190.0 L 431.5,189.0 L 431.5,188.0 L 431.5,187.0 L 431.5,186.0 L 431.5,185.0 L 431.5,184.0 L 431.5,183.0 L 431.5,182.0 L 431.5,181.0 L 431.5,180.0 L 431.5,179.0 L 431.5,178.0 L 431.5,177.0 L 431.5,176.0 L 431.5,175.0 L 431.5,174.0 L 431.5,173.0 L 431.5,172.0 L 431.5,171.0 L 431.5,170.0 L 431.5,169.0 L 431.5,168.0 L 431.5,167.0 L 431.5,166.0 L 431.5,165.0 L 431.5,164.0 L 431.5,163.0 L 431.5,162.0 L 431.5,161.0 L 431.5,160.0 L 431.5,159.0 L 431.5,158.0 L 431.5,157.0 L 431.5,156.0 L 431.5,155.0 L 431.5,154.0 L 431.5,153.0 L 431.5,152.0 L 431.5,151.0 L 431.5,150.0 L 431.5,149.0 L 431.5,148.0 L 431.5,147.0 L 431.5,146.0 L 431.5,145.0 L 431.5,144.0 L 431.5,143.0 L 431.5,142.0 L 431.5,141.0 L 431.5,140.0 L 431.5,139.0 L 431.5,138.0 L 431.5,137.0 L 431.5,136.0 L 431.5,135.0 L 431.5,134.0 L 431.5,133.0 L 431.5,132.0 L 431.5,131.0 L 431.5,130.0 L 431.5,129.0 L 431.5,128.0 L 431.5,127.0 L 431.5,126.0 L 431.5,125.0 L 431.5,124.0 L 431.5,123.0 L 431.5,122.0 L 431.5,121.0 L 431.5,120.0 L 431.5,119.0 L 431.5,118.0 L 431.5,117.0 L 431.5,116.0 L 431.5,115.0 L 431.5,114.0 L 431.5,113.0 L 431.5,112.0 L 431.5,111.0 L 431.5,110.0 L 431.5,109.0 L 431.5,108.0 L 431.5,107.0 L 431.5,106.0 L 431.5,105.0 L 431.5,104.0 L 431.5,103.0 L 431.5,102.0 L 431.5,101.0 L 431.5,100.0 L 431.5,99.0 L 431.5,98.0 L 431.5,97.0 L 431.5,96.0 L 431.5,95.0 L 431.5,94.0 L 431.5,93.0 L 431.5,92.0 L 431.5,91.0 L 431.5,90.0 L 431.5,89.0 L 431.5,88.0 L 431.5,87.0 L 431.5,86.0 L 431.5,85.0 L 431.0,84.5 L 430.5,84.0 L 430.5,83.0 L 430.5,82.0 L 430.0,81.5 L 429.5,81.0 L 429.0,80.5 L 428.0,80.5 L 427.0,80.5 L 426.5,80.0 L 426.0,79.5 L 425.0,79.5 L 424.0,79.5 L 423.0,79.5 L 422.0,79.5 L 421.0,79.5 L 420.0,79.5 L 419.0,79.5 L 418.0,79.5 L 417.0,79.5 L 416.0,79.5 L 415.0,79.5 L 414.0,79.5 L 413.0,79.5 L 412.0,79.5 L 411.0,79.5 L 410.0,79.5 L 409.0,79.5 L 408.0,79.5 L 407.0,79.5 L 406.0,79.5 L 405.0,79.5 L 404.0,79.5 L 403.0,79.5 L 402.0,79.5 L 401.0,79.5 L 400.0,79.5 L 399.0,79.5 L 398.0,79.5 L 397.0,79.5 L 396.0,79.5 L 395.0,79.5 L 394.0,79.5 L 393.0,79.5 L 392.0,79.5 L 391.0,79.5 L 390.0,79.5 L 389.0,79.5 L 388.0,79.5 L 387.0,79.5 L 386.0,79.5 L 385.0,79.5 L 384.0,79.5 L 383.0,79.5 L 382.0,79.5 L 381.0,79.5 L 380.0,79.5 L 379.0,79.5 L 378.0,79.5 L 377.0,79.5 L 376.0,79.5 L 375.0,79.5 L 374.0,79.5 L 373.0,79.5 L 372.0,79.5 L 371.0,79.5 L 370.0,79.5 L 369.0,79.5 L 368.0,79.5 L 367.0,79.5 L 366.0,79.5 L 365.0,79.5 L 364.0,79.5 L 363.0,79.5 L 362.0,79.5 L 361.0,79.5 L 360.0,79.5 L 359.0,79.5 L 358.0,79.5 L 357.0,79.5 L 356.0,79.5 L 355.0,79.5 L 354.0,79.5 L 353.0,79.5 L 352.0,79.5 L 351.0,79.5 L 350.0,79.5 L 349.0,79.5 L 348.0,79.5 L 347.0,79.5 L 346.0,79.5 L 345.0,79.5 L 344.0,79.5 L 343.0,79.5 L 342.0,79.5 L 341.0,79.5 L 340.0,79.5 L 339.0,79.5 L 338.0,79.5 L 337.0,79.5 L 336.0,79.5 L 335.0,79.5 L 334.0,79.5 L 333.0,79.5 L 332.0,79.5 L 331.0,79.5 L 330.0,79.5 L 329.0,79.5 L 328.0,79.5 L 327.0,79.5 L 326.0,79.5 L 325.0,79.5 L 324.0,79.5 L 323.0,79.5 L 322.0,79.5 L 321.0,79.5 L 320.0,79.5 L 319.0,79.5 L 318.0,79.5 L 317.0,79.5 L 316.0,79.5 L 315.0,79.5 L 314.5,79.0 L 314.0,78.5 L 313.0,78.5 L 312.0,78.5 L 311.5,78.0 L 311.0,77.5 L 310.5,77.0 L 310.0,76.5 L 309.0,76.5 L 308.5,76.0 L 308.0,75.5 L 307.5,75.0 L 307.0,74.5 L 306.5,74.0 L 306.5,73.0 L 306.0,72.5 L 305.5,72.0 L 305.0,71.5 L 304.5,71.0 L 304.5,70.0 L 304.5,69.0 L 304.0,68.5 L 303.5,68.0 L 303.5,67.0 L 303.5,66.0 L 303.5,65.0 L 303.5,64.0 L 303.5,63.0 L 303.5,62.0 L 303.5,61.0 L 303.5,60.0 L 303.5,59.0 L 304.0,58.5 L 304.5,58.0 L 304.5,57.0 L 304.5,56.0 L 305.0,55.5 L 305.5,55.0 L 306.0,54.5 L 306.5,54.0 L 306.5,53.0 L 307.0,52.5 L 307.5,52.0 L 308.0,51.5 L 308.5,51.0 L 309.0,50.5 L 310.0,50.5 L 310.5,50.0 L 311.0,49.5 L 311.5,49.0 L 312.0,48.5 L 313.0,48.5 L 314.0,48.5 L 314.5,48.0 L 315.0,47.5 L 316.0,47.5 L 317.0,47.5 L 318.0,47.5 L 319.0,47.5 L 320.0,47.5 L 321.0,47.5 L 322.0,47.5 L 323.0,47.5 L 324.0,47.5 L 325.0,47.5 L 326.0,47.5 L 327.0,47.5 L 328.0,47.5 L 329.0,47.5 L 330.0,47.5 L 331.0,47.5 L 332.0,47.5 L 333.0,47.5 L 334.0,47.5 L 335.0,47.5 L 336.0,47.5 L 337.0,47.5 L 338.0,47.5 L 339.0,47.5 L 340.0,47.5 L 341.0,47.5 L 342.0,47.5 L 343.0,47.5 L 344.0,47.5 L 345.0,47.5 L 346.0,47.5 L 347.0,47.5 L 348.0,47.5 L 349.0,47.5 L 350.0,47.5 L 351.0,47.5 L 352.0,47.5 L 353.0,47.5 L 354.0,47.5 L 355.0,47.5 L 356.0,47.5 L 357.0,47.5 L 358.0,47.5 L 359.0,47.5 L 360.0,47.5 L 361.0,47.5 L 362.0,47.5 L 363.0,47.5 L 364.0,47.5 L 365.0,47.5 L 366.0,47.5 L 367.0,47.5 L 368.0,47.5 L 369.0,47.5 L 370.0,47.5 L 371.0,47.5 L 372.0,47.5 L 373.0,47.5 L 374.0,47.5 L 375.0,47.5 L 376.0,47.5 L 377.0,47.5 L 378.0,47.5 L 379.0,47.5 L 380.0,47.5 L 381.0,47.5 L 382.0,47.5 L 383.0,47.5 L 384.0,47.5 L 385.0,47.5 L 386.0,47.5 L 387.0,47.5 L 388.0,47.5 L 389.0,47.5 L 390.0,47.5 L 391.0,47.5 L 392.0,47.5 L 393.0,47.5 L 394.0,47.5 L 395.0,47.5 L 396.0,47.5 L 397.0,47.5 L 398.0,47.5 L 399.0,47.5 L 400.0,47.5 L 401.0,47.5 L 402.0,47.5 L 403.0,47.5 L 404.0,47.5 L 405.0,47.5 L 406.0,47.5 L 407.0,47.5 L 408.0,47.5 L 409.0,47.5 L 410.0,47.5 L 411.0,47.5 L 412.0,47.5 L 413.0,47.5 L 414.0,47.5 L 415.0,47.5 L 416.0,47.5 L 417.0,47.5 L 418.0,47.5 L 419.0,47.5 L 420.0,47.5 L 421.0,47.5 L 422.0,47.5 L 423.0,47.5 L 424.0,47.5 L 425.0,47.5 L 426.0,47.5 L 427.0,47.5 L 428.0,47.5 L 429.0,47.5 L 430.0,47.5 L 431.0,47.5 L 432.0,47.5 L 433.0,47.5 L 434.0,47.5 L 434.5,48.0 L 435.0,48.5 L 436.0,48.5 L 437.0,48.5 L 437.5,49.0 L 438.0,49.5 L 439.0,49.5 L 440.0,49.5 L 440.5,50.0 L 441.0,50.5 L 442.0,50.5 L 442.5,51.0 L 443.0,51.5 L 444.0,51.5 L 444.5,52.0 L 445.0,52.5 L 446.0,52.5 L 446.5,53.0 L 447.0,53.5 L 447.5,54.0 L 448.0,54.5 L 449.0,54.5 L 449.5,55.0 L 450.0,55.5 L 450.5,56.0 L 451.0,56.5 L 451.5,57.0 L 452.0,57.5 L 452.5,58.0 L 453.0,58.5 L 453.5,59.0 L 454.0,59.5 L 454.5,60.0 L 455.0,60.5 L 455.5,61.0 L 456.0,61.5 L 456.5,62.0 L 456.5,63.0 L 457.0,63.5 L 457.5,64.0 L 458.0,64.5 L 458.5,65.0 L 458.5,66.0 L 459.0,66.5 L 459.5,67.0 L 459.5,68.0 L 460.0,68.5 L 460.5,69.0 L 460.5,70.0 L 461.0,70.5 L 461.5,71.0 L 461.5,72.0 L 461.5,73.0 L 462.0,73.5 L 462.5,74.0 L 462.5,75.0 L 462.5,76.0 L 463.0,76.5 L 463.5,77.0 L 463.5,78.0 L 463.5,79.0 L 463.5,80.0 L 463.5,81.0 L 463.5,82.0 L 463.5,83.0 L 463.5,84.0 L 463.5,85.0 L 463.5,86.0 L 463.5,87.0 L 463.5,88.0 L 463.5,89.0 L 463.5,90.0 L 463.5,91.0 L 463.5,92.0 L 463.5,93.0 L 463.5,94.0 L 463.5,95.0 L 463.5,96.0 L 463.5,97.0 L 463.5,98.0 L 463.5,99.0 L 463.5,100.0 L 463.5,101.0 L 463.5,102.0 L 463.5,103.0 L 463.5,104.0 L 463.5,105.0 L 463.5,106.0 L 463.5,107.0 L 463.5,108.0 L 463.5,109.0 L 463.5,110.0 L 463.5,111.0 L 463.5,112.0 L 463.5,113.0 L 463.5,114.0 L 463.5,115.0 L 463.5,116.0 L 463.5,117.0 L 463.5,118.0 L 463.5,119.0 L 463.5,120.0 L 463.5,121.0 L 463.5,122.0 L 463.5,123.0 L 463.5,124.0 L 463.5,125.0 L 463.5,126.0 L 463.5,127.0 L 463.5,128.0 L 463.5,129.0 L 463.5,130.0 L 463.5,131.0 L 463.5,132.0 L 463.5,133.0 L 463.5,134.0 L 463.5,135.0 L 463.5,136.0 L 463.5,137.0 L 463.5,138.0 L 463.5,139.0 L 463.5,140.0 L 463.5,141.0 L 463.5,142.0 L 463.5,143.0 L 463.5,144.0 L 463.5,145.0 L 463.5,146.0 L 463.5,147.0 L 463.5,148.0 L 463.5,149.0 L 463.5,150.0 L 463.5,151.0 L 463.5,152.0 L 463.5,153.0 L 463.5,154.0 L 463.5,155.0 L 463.5,156.0 L 463.5,157.0 L 463.5,158.0 L 463.5,159.0 L 463.5,160.0 L 463.5,161.0 L 463.5,162.0 L 463.5,163.0 L 463.5,164.0 L 463.5,165.0 L 463.5,166.0 L 463.5,167.0 L 463.5,168.0 L 463.5,169.0 L 463.5,170.0 L 463.5,171.0 L 463.5,172.0 L 463.5,173.0 L 463.5,174.0 L 463.5,175.0 L 463.5,176.0 L 463.5,177.0 L 463.5,178.0 L 463.5,179.0 L 463.5,180.0 L 463.5,181.0 L 463.5,182.0 L 463.5,183.0 L 463.5,184.0 L 463.5,185.0 L 463.5,186.0 L 463.5,187.0 L 463.5,188.0 L 463.5,189.0 L 463.5,190.0 L 463.5,191.0 L 463.5,192.0 L 463.5,193.0 L 463.5,194.0 L 463.5,195.0 L 463.5,196.0 L 463.0,196.5 L 462.5,197.0 L 462.5,198.0 L 462.5,199.0 L 462.0,199.5 L 461.5,200.0 L 461.0,200.5 L 460.5,201.0 L 460.5,202.0 L 460.0,202.5 L 459.5,203.0 L 459.0,203.5 L 458.5,204.0 L 458.0,204.5 L 457.0,204.5 L 456.5,205.0 L 456.0,205.5 L 455.5,206.0 L 455.0,206.5 L 454.0,206.5 L 453.0,206.5 L 452.5,207.0 L 452.0,207.5 Z" fill="#EF314C"/>
<path d="M 215.0,229.5 L 214.0,229.5 L 213.0,229.5 L 212.0,229.5 L 211.0,229.5 L 210.0,229.5 L 209.0,229.5 L 208.0,229.5 L 207.0,229.5 L 206.0,229.5 L 205.0,229.5 L 204.0,229.5 L 203.0,229.5 L 202.0,229.5 L 201.0,229.5 L 200.0,229.5 L 199.0,229.5 L 198.0,229.5 L 197.0,229.5 L 196.0,229.5 L 195.0,229.5 L 194.0,229.5 L 193.0,229.5 L 192.0,229.5 L 191.0,229.5 L 190.0,229.5 L 189.0,229.5 L 188.0,229.5 L 187.0,229.5 L 186.0,229.5 L 185.0,229.5 L 184.0,229.5 L 183.0,229.5 L 182.0,229.5 L 181.0,229.5 L 180.0,229.5 L 179.0,229.5 L 178.0,229.5 L 177.0,229.5 L 176.0,229.5 L 175.0,229.5 L 174.0,229.5 L 173.0,229.5 L 172.0,229.5 L 171.0,229.5 L 170.0,229.5 L 169.0,229.5 L 168.0,229.5 L 167.0,229.5 L 166.0,229.5 L 165.0,229.5 L 164.0,229.5 L 163.0,229.5 L 162.0,229.5 L 161.0,229.5 L 160.0,229.5 L 159.0,229.5 L 158.0,229.5 L 157.0,229.5 L 156.0,229.5 L 155.0,229.5 L 154.0,229.5 L 153.0,229.5 L 152.0,229.5 L 151.0,229.5 L 150.0,229.5 L 149.0,229.5 L 148.0,229.5 L 147.0,229.5 L 146.0,229.5 L 145.0,229.5 L 144.0,229.5 L 143.0,229.5 L 142.0,229.5 L 141.0,229.5 L 140.0,229.5 L 139.0,229.5 L 138.0,229.5 L 137.0,229.5 L 136.0,229.5 L 135.0,229.5 L 134.0,229.5 L 133.0,229.5 L 132.0,229.5 L 131.0,229.5 L 130.0,229.5 L 129.0,229.5 L 128.0,229.5 L 127.0,229.5 L 126.0,229.5 L 125.0,229.5 L 124.5,229.0 L 124.0,228.5 L 123.0,228.5 L 122.0,228.5 L 121.5,228.0 L 121.0,227.5 L 120.0,227.5 L 119.5,227.0 L 119.0,226.5 L 118.0,226.5 L 117.5,226.0 L 117.0,225.5 L 116.5,225.0 L 116.0,224.5 L 115.5,224.0 L 115.0,223.5 L 114.5,223.0 L 114.0,222.5 L 113.5,222.0 L 113.5,221.0 L 113.0,220.5 L 112.5,220.0 L 112.5,219.0 L 112.0,218.5 L 111.5,218.0 L 111.5,217.0 L 111.5,216.0 L 111.5,215.0 L 111.5,214.0 L 111.5,213.0 L 111.5,212.0 L 111.5,211.0 L 111.5,210.0 L 111.5,209.0 L 111.5,208.0 L 111.5,207.0 L 111.5,206.0 L 111.5,205.0 L 111.5,204.0 L 111.5,203.0 L 111.5,202.0 L 111.5,201.0 L 111.5,200.0 L 111.5,199.0 L 111.5,198.0 L 111.5,197.0 L 111.5,196.0 L 111.5,195.0 L 111.5,194.0 L 111.5,193.0 L 111.5,192.0 L 111.5,191.0 L 111.5,190.0 L 111.5,189.0 L 111.5,188.0 L 111.5,187.0 L 111.5,186.0 L 111.5,185.0 L 111.5,184.0 L 111.5,183.0 L 111.5,182.0 L 111.5,181.0 L 111.5,180.0 L 111.5,179.0 L 111.5,178.0 L 111.5,177.0 L 111.5,176.0 L 111.5,175.0 L 111.5,174.0 L 111.5,173.0 L 111.5,172.0 L 111.5,171.0 L 111.5,170.0 L 111.5,169.0 L 111.5,168.0 L 111.5,167.0 L 111.5,166.0 L 111.5,165.0 L 111.5,164.0 L 111.5,163.0 L 111.5,162.0 L 111.5,161.0 L 111.5,160.0 L 111.5,159.0 L 111.5,158.0 L 111.5,157.0 L 111.5,156.0 L 111.5,155.0 L 111.5,154.0 L 111.5,153.0 L 111.5,152.0 L 111.5,151.0 L 111.5,150.0 L 111.5,149.0 L 111.5,148.0 L 111.5,147.0 L 111.5,146.0 L 111.5,145.0 L 111.5,144.0 L 111.5,143.0 L 111.5,142.0 L 111.5,141.0 L 111.5,140.0 L 111.5,139.0 L 111.5,138.0 L 111.5,137.0 L 111.5,136.0 L 111.5,135.0 L 111.5,134.0 L 111.5,133.0 L 111.5,132.0 L 111.5,131.0 L 111.5,130.0 L 111.5,129.0 L 111.5,128.0 L 111.5,127.0 L 111.5,126.0 L 111.5,125.0 L 111.5,124.0 L 111.5,123.0 L 112.0,122.5 L 112.5,122.0 L 112.5,121.0 L 112.5,120.0 L 113.0,119.5 L 113.5,119.0 L 114.0,118.5 L 114.5,118.0 L 114.5,117.0 L 115.0,116.5 L 115.5,116.0 L 116.0,115.5 L 116.5,115.0 L 117.0,114.5 L 118.0,114.5 L 118.5,114.0 L 119.0,113.5 L 119.5,113.0 L 120.0,112.5 L 121.0,112.5 L 122.0,112.5 L 122.5,112.0 L 123.0,111.5 L 124.0,111.5 L 125.0,111.5 L 126.0,111.5 L 127.0,111.5 L 128.0,111.5 L 129.0,111.5 L 130.0,111.5 L 131.0,111.5 L 132.0,111.5 L 133.0,111.5 L 134.0,111.5 L 135.0,111.5 L 136.0,111.5 L 137.0,111.5 L 138.0,111.5 L 139.0,111.5 L 140.0,111.5 L 141.0,111.5 L 142.0,111.5 L 143.0,111.5 L 144.0,111.5 L 145.0,111.5 L 146.0,111.5 L 147.0,111.5 L 148.0,111.5 L 149.0,111.5 L 150.0,111.5 L 151.0,111.5 L 152.0,111.5 L 153.0,111.5 L 154.0,111.5 L 155.0,111.5 L 156.0,111.5 L 157.0,111.5 L 158.0,111.5 L 159.0,111.5 L 160.0,111.5 L 161.0,111.5 L 162.0,111.5 L 163.0,111.5 L 164.0,111.5 L 165.0,111.5 L 166.0,111.5 L 167.0,111.5 L 168.0,111.5 L 169.0,111.5 L 170.0,111.5 L 171.0,111.5 L 172.0,111.5 L 173.0,111.5 L 174.0,111.5 L 175.0,111.5 L 176.0,111.5 L 177.0,111.5 L 178.0,111.5 L 179.0,111.5 L 180.0,111.5 L 181.0,111.5 L 182.0,111.5 L 183.0,111.5 L 184.0,111.5 L 185.0,111.5 L 186.0,111.5 L 187.0,111.5 L 188.0,111.5 L 189.0,111.5 L 190.0,111.5 L 191.0,111.5 L 192.0,111.5 L 193.0,111.5 L 194.0,111.5 L 195.0,111.5 L 196.0,111.5 L 197.0,111.5 L 198.0,111.5 L 199.0,111.5 L 200.0,111.5 L 201.0,111.5 L 202.0,111.5 L 203.0,111.5 L 204.0,111.5 L 205.0,111.5 L 206.0,111.5 L 207.0,111.5 L 208.0,111.5 L 209.0,111.5 L 210.0,111.5 L 211.0,111.5 L 212.0,111.5 L 213.0,111.5 L 214.0,111.5 L 215.0,111.5 L 216.0,111.5 L 217.0,111.5 L 218.0,111.5 L 218.5,112.0 L 219.0,112.5 L 220.0,112.5 L 220.5,113.0 L 221.0,113.5 L 222.0,113.5 L 222.5,114.0 L 223.0,114.5 L 223.5,115.0 L 224.0,115.5 L 224.5,116.0 L 225.0,116.5 L 225.5,117.0 L 226.0,117.5 L 226.5,118.0 L 226.5,119.0 L 227.0,119.5 L 227.5,120.0 L 227.5,121.0 L 228.0,121.5 L 228.5,122.0 L 228.5,123.0 L 228.5,124.0 L 229.0,124.5 L 229.5,125.0 L 229.5,126.0 L 229.5,127.0 L 229.5,128.0 L 229.5,129.0 L 229.5,130.0 L 229.5,131.0 L 229.5,132.0 L 229.5,133.0 L 229.5,134.0 L 229.5,135.0 L 229.5,136.0 L 229.5,137.0 L 229.5,138.0 L 229.5,139.0 L 229.5,140.0 L 229.5,141.0 L 229.5,142.0 L 229.5,143.0 L 229.5,144.0 L 229.5,145.0 L 229.5,146.0 L 229.5,147.0 L 229.5,148.0 L 229.5,149.0 L 229.5,150.0 L 229.5,151.0 L 229.5,152.0 L 229.5,153.0 L 229.5,154.0 L 229.5,155.0 L 229.5,156.0 L 229.5,157.0 L 229.5,158.0 L 229.5,159.0 L 229.5,160.0 L 229.5,161.0 L 229.5,162.0 L 229.5,163.0 L 229.5,164.0 L 229.5,165.0 L 229.5,166.0 L 229.5,167.0 L 229.5,168.0 L 229.5,169.0 L 229.5,170.0 L 229.5,171.0 L 229.5,172.0 L 229.5,173.0 L 229.5,174.0 L 229.5,175.0 L 229.5,176.0 L 229.5,177.0 L 229.5,178.0 L 229.5,179.0 L 229.5,180.0 L 229.5,181.0 L 229.5,182.0 L 229.5,183.0 L 229.5,184.0 L 229.5,185.0 L 229.5,186.0 L 229.5,187.0 L 229.5,188.0 L 229.5,189.0 L 229.5,190.0 L 229.5,191.0 L 229.5,192.0 L 229.5,193.0 L 229.5,194.0 L 229.5,195.0 L 229.5,196.0 L 229.5,197.0 L 229.5,198.0 L 229.5,199.0 L 229.5,200.0 L 229.5,201.0 L 229.5,202.0 L 229.5,203.0 L 229.5,204.0 L 229.5,205.0 L 229.5,206.0 L 229.5,207.0 L 229.5,208.0 L 229.5,209.0 L 229.5,210.0 L 229.5,211.0 L 229.5,212.0 L 229.5,213.0 L 229.5,214.0 L 229.5,215.0 L 229.0,215.5 L 228.5,216.0 L 228.5,217.0 L 228.5,218.0 L 228.5,219.0 L 228.0,219.5 L 227.5,220.0 L 227.5,221.0 L 227.0,221.5 L 226.5,222.0 L 226.0,222.5 L 225.5,223.0 L 225.0,223.5 L 224.5,224.0 L 224.0,224.5 L 223.5,225.0 L 223.0,225.5 L 222.5,226.0 L 222.0,226.5 L 221.5,227.0 L 221.0,227.5 L 220.0,227.5 L 219.5,228.0 L 219.0,228.5 L 218.0,228.5 L 217.0,228.5 L 216.0,228.5 L 215.5,229.0 L 215.0,229.5 Z" fill="#EF314C"/>
<path d="M 386.0,229.5 L 385.0,229.5 L 384.0,229.5 L 383.0,229.5 L 382.0,229.5 L 381.0,229.5 L 380.0,229.5 L 379.0,229.5 L 378.0,229.5 L 377.0,229.5 L 376.0,229.5 L 375.0,229.5 L 374.0,229.5 L 373.0,229.5 L 372.0,229.5 L 371.0,229.5 L 370.0,229.5 L 369.0,229.5 L 368.0,229.5 L 367.0,229.5 L 366.0,229.5 L 365.0,229.5 L 364.0,229.5 L 363.0,229.5 L 362.0,229.5 L 361.0,229.5 L 360.0,229.5 L 359.0,229.5 L 358.0,229.5 L 357.0,229.5 L 356.0,229.5 L 355.0,229.5 L 354.0,229.5 L 353.0,229.5 L 352.0,229.5 L 351.0,229.5 L 350.0,229.5 L 349.0,229.5 L 348.0,229.5 L 347.0,229.5 L 346.0,229.5 L 345.0,229.5 L 344.0,229.5 L 343.0,229.5 L 342.0,229.5 L 341.0,229.5 L 340.0,229.5 L 339.0,229.5 L 338.0,229.5 L 337.0,229.5 L 336.0,229.5 L 335.0,229.5 L 334.0,229.5 L 333.0,229.5 L 332.0,229.5 L 331.0,229.5 L 330.0,229.5 L 329.0,229.5 L 328.0,229.5 L 327.0,229.5 L 326.0,229.5 L 325.0,229.5 L 324.0,229.5 L 323.0,229.5 L 322.0,229.5 L 321.0,229.5 L 320.0,229.5 L 319.0,229.5 L 318.0,229.5 L 317.0,229.5 L 316.0,229.5 L 315.0,229.5 L 314.0,229.5 L 313.0,229.5 L 312.0,229.5 L 311.0,229.5 L 310.0,229.5 L 309.0,229.5 L 308.0,229.5 L 307.0,229.5 L 306.0,229.5 L 305.0,229.5 L 304.0,229.5 L 303.0,229.5 L 302.0,229.5 L 301.0,229.5 L 300.0,229.5 L 299.0,229.5 L 298.0,229.5 L 297.0,229.5 L 296.0,229.5 L 295.5,229.0 L 295.0,228.5 L 294.0,228.5 L 293.0,228.5 L 292.0,228.5 L 291.5,228.0 L 291.0,227.5 L 290.0,227.5 L 289.5,227.0 L 289.0,226.5 L 288.5,226.0 L 288.0,225.5 L 287.5,225.0 L 287.0,224.5 L 286.5,224.0 L 286.0,223.5 L 285.5,223.0 L 285.0,222.5 L 284.5,222.0 L 284.0,221.5 L 283.5,221.0 L 283.5,220.0 L 283.0,219.5 L 282.5,219.0 L 282.5,218.0 L 282.5,217.0 L 282.5,216.0 L 282.0,215.5 L 281.5,215.0 L 281.5,214.0 L 281.5,213.0 L 281.5,212.0 L 281.5,211.0 L 281.5,210.0 L 281.5,209.0 L 281.5,208.0 L 281.5,207.0 L 281.5,206.0 L 281.5,205.0 L 281.5,204.0 L 281.5,203.0 L 281.5,202.0 L 281.5,201.0 L 281.5,200.0 L 281.5,199.0 L 281.5,198.0 L 281.5,197.0 L 281.5,196.0 L 281.5,195.0 L 281.5,194.0 L 281.5,193.0 L 281.5,192.0 L 281.5,191.0 L 281.5,190.0 L 281.5,189.0 L 281.5,188.0 L 281.5,187.0 L 281.5,186.0 L 281.5,185.0 L 281.5,184.0 L 281.5,183.0 L 281.5,182.0 L 281.5,181.0 L 281.5,180.0 L 281.5,179.0 L 281.5,178.0 L 281.5,177.0 L 281.5,176.0 L 281.5,175.0 L 281.5,174.0 L 281.5,173.0 L 281.5,172.0 L 281.5,171.0 L 281.5,170.0 L 281.5,169.0 L 281.5,168.0 L 281.5,167.0 L 281.5,166.0 L 281.5,165.0 L 281.5,164.0 L 281.5,163.0 L 281.5,162.0 L 281.5,161.0 L 281.5,160.0 L 281.5,159.0 L 281.5,158.0 L 281.5,157.0 L 281.5,156.0 L 281.5,155.0 L 281.5,154.0 L 281.5,153.0 L 281.5,152.0 L 281.5,151.0 L 281.5,150.0 L 281.5,149.0 L 281.5,148.0 L 281.5,147.0 L 281.5,146.0 L 281.5,145.0 L 281.5,144.0 L 281.5,143.0 L 281.5,142.0 L 281.5,141.0 L 281.5,140.0 L 281.5,139.0 L 281.5,138.0 L 281.5,137.0 L 281.5,136.0 L 281.5,135.0 L 281.5,134.0 L 281.5,133.0 L 281.5,132.0 L 281.5,131.0 L 281.5,130.0 L 281.5,129.0 L 281.5,128.0 L 281.5,127.0 L 281.5,126.0 L 281.5,125.0 L 282.0,124.5 L 282.5,124.0 L 282.5,123.0 L 282.5,122.0 L 283.0,121.5 L 283.5,121.0 L 283.5,120.0 L 284.0,119.5 L 284.5,119.0 L 284.5,118.0 L 285.0,117.5 L 285.5,117.0 L 286.0,116.5 L 286.5,116.0 L 287.0,115.5 L 287.5,115.0 L 288.0,114.5 L 288.5,114.0 L 289.0,113.5 L 290.0,113.5 L 290.5,113.0 L 291.0,112.5 L 292.0,112.5 L 292.5,112.0 L 293.0,111.5 L 294.0,111.5 L 295.0,111.5 L 296.0,111.5 L 297.0,111.5 L 298.0,111.5 L 299.0,111.5 L 300.0,111.5 L 301.0,111.5 L 302.0,111.5 L 303.0,111.5 L 304.0,111.5 L 305.0,111.5 L 306.0,111.5 L 307.0,111.5 L 308.0,111.5 L 309.0,111.5 L 310.0,111.5 L 311.0,111.5 L 312.0,111.5 L 313.0,111.5 L 314.0,111.5 L 315.0,111.5 L 316.0,111.5 L 317.0,111.5 L 318.0,111.5 L 319.0,111.5 L 320.0,111.5 L 321.0,111.5 L 322.0,111.5 L 323.0,111.5 L 324.0,111.5 L 325.0,111.5 L 326.0,111.5 L 327.0,111.5 L 328.0,111.5 L 329.0,111.5 L 330.0,111.5 L 331.0,111.5 L 332.0,111.5 L 333.0,111.5 L 334.0,111.5 L 335.0,111.5 L 336.0,111.5 L 337.0,111.5 L 338.0,111.5 L 339.0,111.5 L 340.0,111.5 L 341.0,111.5 L 342.0,111.5 L 343.0,111.5 L 344.0,111.5 L 345.0,111.5 L 346.0,111.5 L 347.0,111.5 L 348.0,111.5 L 349.0,111.5 L 350.0,111.5 L 351.0,111.5 L 352.0,111.5 L 353.0,111.5 L 354.0,111.5 L 355.0,111.5 L 356.0,111.5 L 357.0,111.5 L 358.0,111.5 L 359.0,111.5 L 360.0,111.5 L 361.0,111.5 L 362.0,111.5 L 363.0,111.5 L 364.0,111.5 L 365.0,111.5 L 366.0,111.5 L 367.0,111.5 L 368.0,111.5 L 369.0,111.5 L 370.0,111.5 L 371.0,111.5 L 372.0,111.5 L 373.0,111.5 L 374.0,111.5 L 375.0,111.5 L 376.0,111.5 L 377.0,111.5 L 378.0,111.5 L 379.0,111.5 L 380.0,111.5 L 381.0,111.5 L 382.0,111.5 L 383.0,111.5 L 384.0,111.5 L 385.0,111.5 L 386.0,111.5 L 387.0,111.5 L 388.0,111.5 L 388.5,112.0 L 389.0,112.5 L 390.0,112.5 L 391.0,112.5 L 391.5,113.0 L 392.0,113.5 L 392.5,114.0 L 393.0,114.5 L 394.0,114.5 L 394.5,115.0 L 395.0,115.5 L 395.5,116.0 L 396.0,116.5 L 396.5,117.0 L 396.5,118.0 L 397.0,118.5 L 397.5,119.0 L 398.0,119.5 L 398.5,120.0 L 398.5,121.0 L 398.5,122.0 L 399.0,122.5 L 399.5,123.0 L 399.5,124.0 L 399.5,125.0 L 399.5,126.0 L 399.5,127.0 L 399.5,128.0 L 399.5,129.0 L 399.5,130.0 L 399.5,131.0 L 399.5,132.0 L 399.5,133.0 L 399.5,134.0 L 399.5,135.0 L 399.5,136.0 L 399.5,137.0 L 399.5,138.0 L 399.5,139.0 L 399.5,140.0 L 399.5,141.0 L 399.5,142.0 L 399.5,143.0 L 399.5,144.0 L 399.5,145.0 L 399.5,146.0 L 399.5,147.0 L 399.5,148.0 L 399.5,149.0 L 399.5,150.0 L 399.5,151.0 L 399.5,152.0 L 399.5,153.0 L 399.5,154.0 L 399.5,155.0 L 399.5,156.0 L 399.5,157.0 L 399.5,158.0 L 399.5,159.0 L 399.5,160.0 L 399.5,161.0 L 399.5,162.0 L 399.5,163.0 L 399.5,164.0 L 399.5,165.0 L 399.5,166.0 L 399.5,167.0 L 399.5,168.0 L 399.5,169.0 L 399.5,170.0 L 399.5,171.0 L 399.5,172.0 L 399.5,173.0 L 399.5,174.0 L 399.5,175.0 L 399.5,176.0 L 399.5,177.0 L 399.5,178.0 L 399.5,179.0 L 399.5,180.0 L 399.5,181.0 L 399.5,182.0 L 399.5,183.0 L 399.5,184.0 L 399.5,185.0 L 399.5,186.0 L 399.5,187.0 L 399.5,188.0 L 399.5,189.0 L 399.5,190.0 L 399.5,191.0 L 399.5,192.0 L 399.5,193.0 L 399.5,194.0 L 399.5,195.0 L 399.5,196.0 L 399.5,197.0 L 399.5,198.0 L 399.5,199.0 L 399.5,200.0 L 399.5,201.0 L 399.5,202.0 L 399.5,203.0 L 399.5,204.0 L 399.5,205.0 L 399.5,206.0 L 399.5,207.0 L 399.5,208.0 L 399.5,209.0 L 399.5,210.0 L 399.5,211.0 L 399.5,212.0 L 399.5,213.0 L 399.5,214.0 L 399.5,215.0 L 399.5,216.0 L 399.5,217.0 L 399.5,218.0 L 399.0,218.5 L 398.5,219.0 L 398.5,220.0 L 398.0,220.5 L 397.5,221.0 L 397.5,222.0 L 397.0,222.5 L 396.5,223.0 L 396.0,223.5 L 395.5,224.0 L 395.0,224.5 L 394.5,225.0 L 394.0,225.5 L 393.5,226.0 L 393.0,226.5 L 392.0,226.5 L 391.5,227.0 L 391.0,227.5 L 390.0,227.5 L 389.5,228.0 L 389.0,228.5 L 388.0,228.5 L 387.0,228.5 L 386.5,229.0 L 386.0,229.5 Z" fill="#EF314C"/>
<path d="M 196.5,196.0 L 196.5,195.0 L 196.5,194.0 L 196.5,193.0 L 196.5,192.0 L 196.5,191.0 L 196.5,190.0 L 196.5,189.0 L 196.5,188.0 L 196.5,187.0 L 196.5,186.0 L 196.5,185.0 L 196.5,184.0 L 196.5,183.0 L 196.5,182.0 L 196.5,181.0 L 196.5,180.0 L 196.5,179.0 L 196.5,178.0 L 196.5,177.0 L 196.5,176.0 L 196.5,175.0 L 196.5,174.0 L 196.5,173.0 L 196.5,172.0 L 196.5,171.0 L 196.5,170.0 L 196.5,169.0 L 196.5,168.0 L 196.5,167.0 L 196.5,166.0 L 196.5,165.0 L 196.5,164.0 L 196.5,163.0 L 196.5,162.0 L 196.5,161.0 L 196.5,160.0 L 196.5,159.0 L 196.5,158.0 L 196.5,157.0 L 196.5,156.0 L 196.5,155.0 L 196.5,154.0 L 196.5,153.0 L 196.5,152.0 L 196.5,151.0 L 196.5,150.0 L 196.5,149.0 L 196.5,148.0 L 196.5,147.0 L 196.5,146.0 L 196.5,145.0 L 196.5,144.0 L 196.0,143.5 L 195.0,143.5 L 194.0,143.5 L 193.0,143.5 L 192.0,143.5 L 191.0,143.5 L 190.0,143.5 L 189.0,143.5 L 188.0,143.5 L 187.0,143.5 L 186.0,143.5 L 185.0,143.5 L 184.0,143.5 L 183.0,143.5 L 182.0,143.5 L 181.0,143.5 L 180.0,143.5 L 179.0,143.5 L 178.0,143.5 L 177.0,143.5 L 176.0,143.5 L 175.0,143.5 L 174.0,143.5 L 173.0,143.5 L 172.0,143.5 L 171.0,143.5 L 170.0,143.5 L 169.0,143.5 L 168.0,143.5 L 167.0,143.5 L 166.0,143.5 L 165.0,143.5 L 164.0,143.5 L 163.0,143.5 L 162.0,143.5 L 161.0,143.5 L 160.0,143.5 L 159.0,143.5 L 158.0,143.5 L 157.0,143.5 L 156.0,143.5 L 155.0,143.5 L 154.0,143.5 L 153.0,143.5 L 152.0,143.5 L 151.0,143.5 L 150.0,143.5 L 149.0,143.5 L 148.0,143.5 L 147.0,143.5 L 146.0,143.5 L 145.0,143.5 L 144.0,143.5 L 143.5,144.0 L 143.5,145.0 L 143.5,146.0 L 143.5,147.0 L 143.5,148.0 L 143.5,149.0 L 143.5,150.0 L 143.5,151.0 L 143.5,152.0 L 143.5,153.0 L 143.5,154.0 L 143.5,155.0 L 143.5,156.0 L 143.5,157.0 L 143.5,158.0 L 143.5,159.0 L 143.5,160.0 L 143.5,161.0 L 143.5,162.0 L 143.5,163.0 L 143.5,164.0 L 143.5,165.0 L 143.5,166.0 L 143.5,167.0 L 143.5,168.0 L 143.5,169.0 L 143.5,170.0 L 143.5,171.0 L 143.5,172.0 L 143.5,173.0 L 143.5,174.0 L 143.5,175.0 L 143.5,176.0 L 143.5,177.0 L 143.5,178.0 L 143.5,179.0 L 143.5,180.0 L 143.5,181.0 L 143.5,182.0 L 143.5,183.0 L 143.5,184.0 L 143.5,185.0 L 143.5,186.0 L 143.5,187.0 L 143.5,188.0 L 143.5,189.0 L 143.5,190.0 L 143.5,191.0 L 143.5,192.0 L 143.5,193.0 L 143.5,194.0 L 143.5,195.0 L 143.5,196.0 L 144.0,196.5 L 145.0,196.5 L 146.0,196.5 L 147.0,196.5 L 148.0,196.5 L 149.0,196.5 L 150.0,196.5 L 151.0,196.5 L 152.0,196.5 L 153.0,196.5 L 154.0,196.5 L 155.0,196.5 L 156.0,196.5 L 157.0,196.5 L 158.0,196.5 L 159.0,196.5 L 160.0,196.5 L 161.0,196.5 L 162.0,196.5 L 163.0,196.5 L 164.0,196.5 L 165.0,196.5 L 166.0,196.5 L 167.0,196.5 L 168.0,196.5 L 169.0,196.5 L 170.0,196.5 L 171.0,196.5 L 172.0,196.5 L 173.0,196.5 L 174.0,196.5 L 175.0,196.5 L 176.0,196.5 L 177.0,196.5 L 178.0,196.5 L 179.0,196.5 L 180.0,196.5 L 181.0,196.5 L 182.0,196.5 L 183.0,196.5 L 184.0,196.5 L 185.0,196.5 L 186.0,196.5 L 187.0,196.5 L 188.0,196.5 L 189.0,196.5 L 190.0,196.5 L 191.0,196.5 L 192.0,196.5 L 193.0,196.5 L 194.0,196.5 L 195.0,196.5 L 196.0,196.5 L 196.5,196.0 Z" fill="#EF314C"/>
<path d="M 367.5,196.0 L 367.5,195.0 L 367.5,194.0 L 367.5,193.0 L 367.5,192.0 L 367.5,191.0 L 367.5,190.0 L 367.5,189.0 L 367.5,188.0 L 367.5,187.0 L 367.5,186.0 L 367.5,185.0 L 367.5,184.0 L 367.5,183.0 L 367.5,182.0 L 367.5,181.0 L 367.5,180.0 L 367.5,179.0 L 367.5,178.0 L 367.5,177.0 L 367.5,176.0 L 367.5,175.0 L 367.5,174.0 L 367.5,173.0 L 367.5,172.0 L 367.5,171.0 L 367.5,170.0 L 367.5,169.0 L 367.5,168.0 L 367.5,167.0 L 367.5,166.0 L 367.5,165.0 L 367.5,164.0 L 367.5,163.0 L 367.5,162.0 L 367.5,161.0 L 367.5,160.0 L 367.5,159.0 L 367.5,158.0 L 367.5,157.0 L 367.5,156.0 L 367.5,155.0 L 367.5,154.0 L 367.5,153.0 L 367.5,152.0 L 367.5,151.0 L 367.5,150.0 L 367.5,149.0 L 367.5,148.0 L 367.5,147.0 L 367.5,146.0 L 367.5,145.0 L 367.5,144.0 L 367.0,143.5 L 366.0,143.5 L 365.0,143.5 L 364.0,143.5 L 363.0,143.5 L 362.0,143.5 L 361.0,143.5 L 360.0,143.5 L 359.0,143.5 L 358.0,143.5 L 357.0,143.5 L 356.0,143.5 L 355.0,143.5 L 354.0,143.5 L 353.0,143.5 L 352.0,143.5 L 351.0,143.5 L 350.0,143.5 L 349.0,143.5 L 348.0,143.5 L 347.0,143.5 L 346.0,143.5 L 345.0,143.5 L 344.0,143.5 L 343.0,143.5 L 342.0,143.5 L 341.0,143.5 L 340.0,143.5 L 339.0,143.5 L 338.0,143.5 L 337.0,143.5 L 336.0,143.5 L 335.0,143.5 L 334.0,143.5 L 333.0,143.5 L 332.0,143.5 L 331.0,143.5 L 330.0,143.5 L 329.0,143.5 L 328.0,143.5 L 327.0,143.5 L 326.0,143.5 L 325.0,143.5 L 324.0,143.5 L 323.0,143.5 L 322.0,143.5 L 321.0,143.5 L 320.0,143.5 L 319.0,143.5 L 318.0,143.5 L 317.0,143.5 L 316.0,143.5 L 315.0,143.5 L 314.5,144.0 L 314.5,145.0 L 314.5,146.0 L 314.5,147.0 L 314.5,148.0 L 314.5,149.0 L 314.5,150.0 L 314.5,151.0 L 314.5,152.0 L 314.5,153.0 L 314.5,154.0 L 314.5,155.0 L 314.5,156.0 L 314.5,157.0 L 314.5,158.0 L 314.5,159.0 L 314.5,160.0 L 314.5,161.0 L 314.5,162.0 L 314.5,163.0 L 314.5,164.0 L 314.5,165.0 L 314.5,166.0 L 314.5,167.0 L 314.5,168.0 L 314.5,169.0 L 314.5,170.0 L 314.5,171.0 L 314.5,172.0 L 314.5,173.0 L 314.5,174.0 L 314.5,175.0 L 314.5,176.0 L 314.5,177.0 L 314.5,178.0 L 314.5,179.0 L 314.5,180.0 L 314.5,181.0 L 314.5,182.0 L 314.5,183.0 L 314.5,184.0 L 314.5,185.0 L 314.5,186.0 L 314.5,187.0 L 314.5,188.0 L 314.5,189.0 L 314.5,190.0 L 314.5,191.0 L 314.5,192.0 L 314.5,193.0 L 314.5,194.0 L 314.5,195.0 L 314.5,196.0 L 315.0,196.5 L 316.0,196.5 L 317.0,196.5 L 318.0,196.5 L 319.0,196.5 L 320.0,196.5 L 321.0,196.5 L 322.0,196.5 L 323.0,196.5 L 324.0,196.5 L 325.0,196.5 L 326.0,196.5 L 327.0,196.5 L 328.0,196.5 L 329.0,196.5 L 330.0,196.5 L 331.0,196.5 L 332.0,196.5 L 333.0,196.5 L 334.0,196.5 L 335.0,196.5 L 336.0,196.5 L 337.0,196.5 L 338.0,196.5 L 339.0,196.5 L 340.0,196.5 L 341.0,196.5 L 342.0,196.5 L 343.0,196.5 L 344.0,196.5 L 345.0,196.5 L 346.0,196.5 L 347.0,196.5 L 348.0,196.5 L 349.0,196.5 L 350.0,196.5 L 351.0,196.5 L 352.0,196.5 L 353.0,196.5 L 354.0,196.5 L 355.0,196.5 L 356.0,196.5 L 357.0,196.5 L 358.0,196.5 L 359.0,196.5 L 360.0,196.5 L 361.0,196.5 L 362.0,196.5 L 363.0,196.5 L 364.0,196.5 L 365.0,196.5 L 366.0,196.5 L 367.0,196.5 L 367.5,196.0 Z" fill="#EF314C"/>
<path d="M 218.0,399.5 L 217.0,399.5 L 216.0,399.5 L 215.0,399.5 L 214.0,399.5 L 213.0,399.5 L 212.0,399.5 L 211.0,399.5 L 210.0,399.5 L 209.0,399.5 L 208.0,399.5 L 207.0,399.5 L 206.0,399.5 L 205.0,399.5 L 204.0,399.5 L 203.0,399.5 L 202.0,399.5 L 201.0,399.5 L 200.0,399.5 L 199.0,399.5 L 198.0,399.5 L 197.0,399.5 L 196.0,399.5 L 195.0,399.5 L 194.0,399.5 L 193.0,399.5 L 192.0,399.5 L 191.0,399.5 L 190.0,399.5 L 189.0,399.5 L 188.0,399.5 L 187.0,399.5 L 186.0,399.5 L 185.0,399.5 L 184.0,399.5 L 183.0,399.5 L 182.0,399.5 L 181.0,399.5 L 180.0,399.5 L 179.0,399.5 L 178.0,399.5 L 177.0,399.5 L 176.0,399.5 L 175.0,399.5 L 174.0,399.5 L 173.0,399.5 L 172.0,399.5 L 171.0,399.5 L 170.0,399.5 L 169.0,399.5 L 168.0,399.5 L 167.0,399.5 L 166.0,399.5 L 165.0,399.5 L 164.0,399.5 L 163.0,399.5 L 162.0,399.5 L 161.0,399.5 L 160.0,399.5 L 159.0,399.5 L 158.0,399.5 L 157.0,399.5 L 156.0,399.5 L 155.0,399.5 L 154.0,399.5 L 153.0,399.5 L 152.0,399.5 L 151.0,399.5 L 150.0,399.5 L 149.0,399.5 L 148.0,399.5 L 147.0,399.5 L 146.0,399.5 L 145.0,399.5 L 144.0,399.5 L 143.0,399.5 L 142.0,399.5 L 141.0,399.5 L 140.0,399.5 L 139.0,399.5 L 138.0,399.5 L 137.0,399.5 L 136.0,399.5 L 135.0,399.5 L 134.0,399.5 L 133.0,399.5 L 132.0,399.5 L 131.0,399.5 L 130.0,399.5 L 129.0,399.5 L 128.0,399.5 L 127.0,399.5 L 126.0,399.5 L 125.0,399.5 L 124.0,399.5 L 123.0,399.5 L 122.5,399.0 L 122.0,398.5 L 121.0,398.5 L 120.0,398.5 L 119.5,398.0 L 119.0,397.5 L 118.5,397.0 L 118.0,396.5 L 117.0,396.5 L 116.5,396.0 L 116.0,395.5 L 115.5,395.0 L 115.0,394.5 L 114.5,394.0 L 114.5,393.0 L 114.0,392.5 L 113.5,392.0 L 113.0,391.5 L 112.5,391.0 L 112.5,390.0 L 112.5,389.0 L 112.0,388.5 L 111.5,388.0 L 111.5,387.0 L 111.5,386.0 L 111.5,385.0 L 111.5,384.0 L 111.5,383.0 L 111.5,382.0 L 111.5,381.0 L 111.5,380.0 L 111.5,379.0 L 111.5,378.0 L 111.5,377.0 L 111.5,376.0 L 111.5,375.0 L 111.5,374.0 L 111.5,373.0 L 111.5,372.0 L 111.5,371.0 L 111.5,370.0 L 111.5,369.0 L 111.5,368.0 L 111.5,367.0 L 111.5,366.0 L 111.5,365.0 L 111.5,364.0 L 111.5,363.0 L 111.5,362.0 L 111.5,361.0 L 111.5,360.0 L 111.5,359.0 L 111.5,358.0 L 111.5,357.0 L 111.5,356.0 L 111.5,355.0 L 111.5,354.0 L 111.5,353.0 L 111.5,352.0 L 111.5,351.0 L 111.5,350.0 L 111.5,349.0 L 111.5,348.0 L 111.5,347.0 L 111.5,346.0 L 111.5,345.0 L 111.5,344.0 L 111.5,343.0 L 111.5,342.0 L 111.5,341.0 L 111.5,340.0 L 111.5,339.0 L 111.5,338.0 L 111.5,337.0 L 111.5,336.0 L 111.5,335.0 L 111.5,334.0 L 111.5,333.0 L 111.5,332.0 L 111.5,331.0 L 111.5,330.0 L 111.5,329.0 L 111.5,328.0 L 111.5,327.0 L 111.5,326.0 L 111.5,325.0 L 111.5,324.0 L 111.5,323.0 L 111.5,322.0 L 111.5,321.0 L 111.5,320.0 L 111.5,319.0 L 111.5,318.0 L 111.5,317.0 L 111.5,316.0 L 111.5,315.0 L 111.5,314.0 L 111.5,313.0 L 111.5,312.0 L 111.5,311.0 L 111.5,310.0 L 111.5,309.0 L 111.5,308.0 L 111.5,307.0 L 111.5,306.0 L 111.5,305.0 L 111.5,304.0 L 111.5,303.0 L 111.5,302.0 L 111.5,301.0 L 111.5,300.0 L 111.5,299.0 L 111.5,298.0 L 111.5,297.0 L 111.5,296.0 L 111.5,295.0 L 111.5,294.0 L 111.5,293.0 L 112.0,292.5 L 112.5,292.0 L 112.5,291.0 L 113.0,290.5 L 113.5,290.0 L 113.5,289.0 L 114.0,288.5 L 114.5,288.0 L 115.0,287.5 L 115.5,287.0 L 116.0,286.5 L 116.5,286.0 L 117.0,285.5 L 117.5,285.0 L 118.0,284.5 L 119.0,284.5 L 119.5,284.0 L 120.0,283.5 L 121.0,283.5 L 121.5,283.0 L 122.0,282.5 L 123.0,282.5 L 124.0,282.5 L 124.5,282.0 L 125.0,281.5 L 126.0,281.5 L 127.0,281.5 L 128.0,281.5 L 129.0,281.5 L 130.0,281.5 L 131.0,281.5 L 132.0,281.5 L 133.0,281.5 L 134.0,281.5 L 135.0,281.5 L 136.0,281.5 L 137.0,281.5 L 138.0,281.5 L 139.0,281.5 L 140.0,281.5 L 141.0,281.5 L 142.0,281.5 L 143.0,281.5 L 144.0,281.5 L 145.0,281.5 L 146.0,281.5 L 147.0,281.5 L 148.0,281.5 L 149.0,281.5 L 150.0,281.5 L 151.0,281.5 L 152.0,281.5 L 153.0,281.5 L 154.0,281.5 L 155.0,281.5 L 156.0,281.5 L 157.0,281.5 L 158.0,281.5 L 159.0,281.5 L 160.0,281.5 L 161.0,281.5 L 162.0,281.5 L 163.0,281.5 L 164.0,281.5 L 165.0,281.5 L 166.0,281.5 L 167.0,281.5 L 168.0,281.5 L 169.0,281.5 L 170.0,281.5 L 171.0,281.5 L 172.0,281.5 L 173.0,281.5 L 174.0,281.5 L 175.0,281.5 L 176.0,281.5 L 177.0,281.5 L 178.0,281.5 L 179.0,281.5 L 180.0,281.5 L 181.0,281.5 L 182.0,281.5 L 183.0,281.5 L 184.0,281.5 L 185.0,281.5 L 186.0,281.5 L 187.0,281.5 L 188.0,281.5 L 189.0,281.5 L 190.0,281.5 L 191.0,281.5 L 192.0,281.5 L 193.0,281.5 L 194.0,281.5 L 195.0,281.5 L 196.0,281.5 L 197.0,281.5 L 198.0,281.5 L 199.0,281.5 L 200.0,281.5 L 201.0,281.5 L 202.0,281.5 L 203.0,281.5 L 204.0,281.5 L 205.0,281.5 L 206.0,281.5 L 207.0,281.5 L 208.0,281.5 L 209.0,281.5 L 210.0,281.5 L 211.0,281.5 L 212.0,281.5 L 213.0,281.5 L 214.0,281.5 L 215.0,281.5 L 215.5,282.0 L 216.0,282.5 L 217.0,282.5 L 218.0,282.5 L 219.0,282.5 L 219.5,283.0 L 220.0,283.5 L 221.0,283.5 L 221.5,284.0 L 222.0,284.5 L 222.5,285.0 L 223.0,285.5 L 223.5,286.0 L 224.0,286.5 L 224.5,287.0 L 225.0,287.5 L 225.5,288.0 L 226.0,288.5 L 226.5,289.0 L 227.0,289.5 L 227.5,290.0 L 227.5,291.0 L 228.0,291.5 L 228.5,292.0 L 228.5,293.0 L 228.5,294.0 L 228.5,295.0 L 229.0,295.5 L 229.5,296.0 L 229.5,297.0 L 229.5,298.0 L 229.5,299.0 L 229.5,300.0 L 229.5,301.0 L 229.5,302.0 L 229.5,303.0 L 229.5,304.0 L 229.5,305.0 L 229.5,306.0 L 229.5,307.0 L 229.5,308.0 L 229.5,309.0 L 229.5,310.0 L 229.5,311.0 L 229.5,312.0 L 229.5,313.0 L 229.5,314.0 L 229.5,315.0 L 229.5,316.0 L 229.5,317.0 L 229.5,318.0 L 229.5,319.0 L 229.5,320.0 L 229.5,321.0 L 229.5,322.0 L 229.5,323.0 L 229.5,324.0 L 229.5,325.0 L 229.5,326.0 L 229.5,327.0 L 229.5,328.0 L 229.5,329.0 L 229.5,330.0 L 229.5,331.0 L 229.5,332.0 L 229.5,333.0 L 229.5,334.0 L 229.5,335.0 L 229.5,336.0 L 229.5,337.0 L 229.5,338.0 L 229.5,339.0 L 229.5,340.0 L 229.5,341.0 L 229.5,342.0 L 229.5,343.0 L 229.5,344.0 L 229.5,345.0 L 229.5,346.0 L 229.5,347.0 L 229.5,348.0 L 229.5,349.0 L 229.5,350.0 L 229.5,351.0 L 229.5,352.0 L 229.5,353.0 L 229.5,354.0 L 229.5,355.0 L 229.5,356.0 L 229.5,357.0 L 229.5,358.0 L 229.5,359.0 L 229.5,360.0 L 229.5,361.0 L 229.5,362.0 L 229.5,363.0 L 229.5,364.0 L 229.5,365.0 L 229.5,366.0 L 229.5,367.0 L 229.5,368.0 L 229.5,369.0 L 229.5,370.0 L 229.5,371.0 L 229.5,372.0 L 229.5,373.0 L 229.5,374.0 L 229.5,375.0 L 229.5,376.0 L 229.5,377.0 L 229.5,378.0 L 229.5,379.0 L 229.5,380.0 L 229.5,381.0 L 229.5,382.0 L 229.5,383.0 L 229.5,384.0 L 229.5,385.0 L 229.5,386.0 L 229.0,386.5 L 228.5,387.0 L 228.5,388.0 L 228.5,389.0 L 228.0,389.5 L 227.5,390.0 L 227.5,391.0 L 227.0,391.5 L 226.5,392.0 L 226.5,393.0 L 226.0,393.5 L 225.5,394.0 L 225.0,394.5 L 224.5,395.0 L 224.0,395.5 L 223.5,396.0 L 223.0,396.5 L 222.5,397.0 L 222.0,397.5 L 221.0,397.5 L 220.5,398.0 L 220.0,398.5 L 219.0,398.5 L 218.5,399.0 L 218.0,399.5 Z" fill="#EF314C"/>
<path d="M 300.0,357.5 L 299.0,357.5 L 298.0,357.5 L 297.0,357.5 L 296.0,357.5 L 295.5,357.0 L 295.0,356.5 L 294.0,356.5 L 293.0,356.5 L 292.0,356.5 L 291.5,356.0 L 291.0,355.5 L 290.5,355.0 L 290.0,354.5 L 289.0,354.5 L 288.5,354.0 L 288.0,353.5 L 287.5,353.0 L 287.0,352.5 L 286.5,352.0 L 286.0,351.5 L 285.5,351.0 L 285.0,350.5 L 284.5,350.0 L 284.0,349.5 L 283.5,349.0 L 283.5,348.0 L 283.0,347.5 L 282.5,347.0 L 282.5,346.0 L 282.5,345.0 L 282.5,344.0 L 282.0,343.5 L 281.5,343.0 L 281.5,342.0 L 281.5,341.0 L 281.5,340.0 L 281.5,339.0 L 281.5,338.0 L 281.5,337.0 L 281.5,336.0 L 281.5,335.0 L 281.5,334.0 L 281.5,333.0 L 281.5,332.0 L 281.5,331.0 L 281.5,330.0 L 281.5,329.0 L 281.5,328.0 L 281.5,327.0 L 281.5,326.0 L 281.5,325.0 L 281.5,324.0 L 281.5,323.0 L 281.5,322.0 L 281.5,321.0 L 281.5,320.0 L 281.5,319.0 L 281.5,318.0 L 281.5,317.0 L 281.5,316.0 L 281.5,315.0 L 281.5,314.0 L 281.5,313.0 L 281.5,312.0 L 281.5,311.0 L 281.5,310.0 L 281.5,309.0 L 281.5,308.0 L 281.5,307.0 L 281.5,306.0 L 281.5,305.0 L 281.5,304.0 L 281.5,303.0 L 281.5,302.0 L 281.5,301.0 L 281.5,300.0 L 281.5,299.0 L 281.5,298.0 L 281.5,297.0 L 281.5,296.0 L 282.0,295.5 L 282.5,295.0 L 282.5,294.0 L 282.5,293.0 L 282.5,292.0 L 283.0,291.5 L 283.5,291.0 L 283.5,290.0 L 284.0,289.5 L 284.5,289.0 L 285.0,288.5 L 285.5,288.0 L 286.0,287.5 L 286.5,287.0 L 287.0,286.5 L 287.5,286.0 L 288.0,285.5 L 288.5,285.0 L 289.0,284.5 L 289.5,284.0 L 290.0,283.5 L 291.0,283.5 L 291.5,283.0 L 292.0,282.5 L 293.0,282.5 L 294.0,282.5 L 295.0,282.5 L 295.5,282.0 L 296.0,281.5 L 297.0,281.5 L 298.0,281.5 L 299.0,281.5 L 300.0,281.5 L 300.5,282.0 L 301.0,282.5 L 302.0,282.5 L 303.0,282.5 L 304.0,282.5 L 304.5,283.0 L 305.0,283.5 L 306.0,283.5 L 306.5,284.0 L 307.0,284.5 L 307.5,285.0 L 308.0,285.5 L 309.0,285.5 L 309.5,286.0 L 310.0,286.5 L 310.5,287.0 L 310.5,288.0 L 311.0,288.5 L 311.5,289.0 L 312.0,289.5 L 312.5,290.0 L 312.5,291.0 L 313.0,291.5 L 313.5,292.0 L 313.5,293.0 L 314.0,293.5 L 314.5,294.0 L 314.5,295.0 L 314.5,296.0 L 314.5,297.0 L 314.5,298.0 L 314.5,299.0 L 314.5,300.0 L 314.5,301.0 L 314.5,302.0 L 314.5,303.0 L 314.5,304.0 L 314.5,305.0 L 314.5,306.0 L 314.5,307.0 L 314.5,308.0 L 314.5,309.0 L 314.5,310.0 L 314.5,311.0 L 314.5,312.0 L 314.5,313.0 L 314.5,314.0 L 314.5,315.0 L 314.5,316.0 L 314.5,317.0 L 314.5,318.0 L 314.5,319.0 L 314.5,320.0 L 314.5,321.0 L 314.5,322.0 L 314.5,323.0 L 314.5,324.0 L 314.5,325.0 L 314.5,326.0 L 314.5,327.0 L 314.5,328.0 L 314.5,329.0 L 314.5,330.0 L 314.5,331.0 L 314.5,332.0 L 314.5,333.0 L 314.5,334.0 L 314.5,335.0 L 314.5,336.0 L 314.5,337.0 L 314.5,338.0 L 314.5,339.0 L 314.5,340.0 L 314.5,341.0 L 314.5,342.0 L 314.5,343.0 L 314.5,344.0 L 314.5,345.0 L 314.0,345.5 L 313.5,346.0 L 313.5,347.0 L 313.0,347.5 L 312.5,348.0 L 312.5,349.0 L 312.0,349.5 L 311.5,350.0 L 311.0,350.5 L 310.5,351.0 L 310.5,352.0 L 310.0,352.5 L 309.5,353.0 L 309.0,353.5 L 308.0,353.5 L 307.5,354.0 L 307.0,354.5 L 306.5,355.0 L 306.0,355.5 L 305.0,355.5 L 304.5,356.0 L 304.0,356.5 L 303.0,356.5 L 302.0,356.5 L 301.0,356.5 L 300.5,357.0 L 300.0,357.5 Z" fill="#EF314C"/>
<path d="M 387.0,314.5 L 386.0,314.5 L 385.0,314.5 L 384.0,314.5 L 383.0,314.5 L 382.0,314.5 L 381.0,314.5 L 380.0,314.5 L 379.0,314.5 L 378.0,314.5 L 377.0,314.5 L 376.0,314.5 L 375.0,314.5 L 374.0,314.5 L 373.0,314.5 L 372.0,314.5 L 371.0,314.5 L 370.0,314.5 L 369.0,314.5 L 368.0,314.5 L 367.0,314.5 L 366.0,314.5 L 365.0,314.5 L 364.0,314.5 L 363.0,314.5 L 362.0,314.5 L 361.0,314.5 L 360.0,314.5 L 359.0,314.5 L 358.0,314.5 L 357.5,314.0 L 357.0,313.5 L 356.0,313.5 L 355.5,313.0 L 355.0,312.5 L 354.0,312.5 L 353.5,312.0 L 353.0,311.5 L 352.5,311.0 L 352.0,310.5 L 351.0,310.5 L 350.5,310.0 L 350.0,309.5 L 349.5,309.0 L 349.5,308.0 L 349.0,307.5 L 348.5,307.0 L 348.0,306.5 L 347.5,306.0 L 347.5,305.0 L 347.0,304.5 L 346.5,304.0 L 346.5,303.0 L 346.5,302.0 L 346.5,301.0 L 346.0,300.5 L 345.5,300.0 L 345.5,299.0 L 345.5,298.0 L 345.5,297.0 L 345.5,296.0 L 346.0,295.5 L 346.5,295.0 L 346.5,294.0 L 346.5,293.0 L 346.5,292.0 L 347.0,291.5 L 347.5,291.0 L 347.5,290.0 L 348.0,289.5 L 348.5,289.0 L 349.0,288.5 L 349.5,288.0 L 350.0,287.5 L 350.5,287.0 L 351.0,286.5 L 351.5,286.0 L 352.0,285.5 L 352.5,285.0 L 353.0,284.5 L 353.5,284.0 L 354.0,283.5 L 355.0,283.5 L 355.5,283.0 L 356.0,282.5 L 357.0,282.5 L 358.0,282.5 L 359.0,282.5 L 359.5,282.0 L 360.0,281.5 L 361.0,281.5 L 362.0,281.5 L 363.0,281.5 L 364.0,281.5 L 365.0,281.5 L 366.0,281.5 L 367.0,281.5 L 368.0,281.5 L 369.0,281.5 L 370.0,281.5 L 371.0,281.5 L 372.0,281.5 L 373.0,281.5 L 374.0,281.5 L 375.0,281.5 L 376.0,281.5 L 377.0,281.5 L 378.0,281.5 L 379.0,281.5 L 380.0,281.5 L 381.0,281.5 L 382.0,281.5 L 383.0,281.5 L 384.0,281.5 L 385.0,281.5 L 386.0,281.5 L 386.5,282.0 L 387.0,282.5 L 388.0,282.5 L 389.0,282.5 L 389.5,283.0 L 390.0,283.5 L 391.0,283.5 L 391.5,284.0 L 392.0,284.5 L 393.0,284.5 L 393.5,285.0 L 394.0,285.5 L 394.5,286.0 L 395.0,286.5 L 395.5,287.0 L 396.0,287.5 L 396.5,288.0 L 397.0,288.5 L 397.5,289.0 L 397.5,290.0 L 398.0,290.5 L 398.5,291.0 L 398.5,292.0 L 399.0,292.5 L 399.5,293.0 L 399.5,294.0 L 399.5,295.0 L 399.5,296.0 L 399.5,297.0 L 399.5,298.0 L 399.5,299.0 L 399.5,300.0 L 399.5,301.0 L 399.5,302.0 L 399.5,303.0 L 399.0,303.5 L 398.5,304.0 L 398.5,305.0 L 398.0,305.5 L 397.5,306.0 L 397.5,307.0 L 397.0,307.5 L 396.5,308.0 L 396.0,308.5 L 395.5,309.0 L 395.0,309.5 L 394.5,310.0 L 394.0,310.5 L 393.5,311.0 L 393.0,311.5 L 392.5,312.0 L 392.0,312.5 L 391.0,312.5 L 390.5,313.0 L 390.0,313.5 L 389.0,313.5 L 388.0,313.5 L 387.5,314.0 L 387.0,314.5 Z" fill="#EF314C"/>
<path d="M 196.0,463.5 L 195.0,463.5 L 194.0,463.5 L 193.0,463.5 L 192.0,463.5 L 191.0,463.5 L 190.0,463.5 L 189.0,463.5 L 188.0,463.5 L 187.0,463.5 L 186.0,463.5 L 185.0,463.5 L 184.0,463.5 L 183.0,463.5 L 182.0,463.5 L 181.0,463.5 L 180.0,463.5 L 179.0,463.5 L 178.0,463.5 L 177.0,463.5 L 176.0,463.5 L 175.0,463.5 L 174.0,463.5 L 173.0,463.5 L 172.0,463.5 L 171.0,463.5 L 170.0,463.5 L 169.0,463.5 L 168.0,463.5 L 167.0,463.5 L 166.0,463.5 L 165.0,463.5 L 164.0,463.5 L 163.0,463.5 L 162.0,463.5 L 161.0,463.5 L 160.0,463.5 L 159.0,463.5 L 158.0,463.5 L 157.0,463.5 L 156.0,463.5 L 155.0,463.5 L 154.0,463.5 L 153.0,463.5 L 152.0,463.5 L 151.0,463.5 L 150.0,463.5 L 149.0,463.5 L 148.0,463.5 L 147.0,463.5 L 146.0,463.5 L 145.0,463.5 L 144.0,463.5 L 143.0,463.5 L 142.0,463.5 L 141.0,463.5 L 140.0,463.5 L 139.0,463.5 L 138.0,463.5 L 137.0,463.5 L 136.0,463.5 L 135.0,463.5 L 134.0,463.5 L 133.0,463.5 L 132.0,463.5 L 131.0,463.5 L 130.0,463.5 L 129.0,463.5 L 128.0,463.5 L 127.0,463.5 L 126.0,463.5 L 125.0,463.5 L 124.0,463.5 L 123.0,463.5 L 122.0,463.5 L 121.0,463.5 L 120.0,463.5 L 119.0,463.5 L 118.0,463.5 L 117.0,463.5 L 116.0,463.5 L 115.0,463.5 L 114.0,463.5 L 113.0,463.5 L 112.0,463.5 L 111.0,463.5 L 110.0,463.5 L 109.0,463.5 L 108.0,463.5 L 107.0,463.5 L 106.0,463.5 L 105.0,463.5 L 104.0,463.5 L 103.0,463.5 L 102.0,463.5 L 101.0,463.5 L 100.0,463.5 L 99.0,463.5 L 98.0,463.5 L 97.0,463.5 L 96.0,463.5 L 95.0,463.5 L 94.0,463.5 L 93.0,463.5 L 92.0,463.5 L 91.0,463.5 L 90.0,463.5 L 89.0,463.5 L 88.0,463.5 L 87.0,463.5 L 86.0,463.5 L 85.0,463.5 L 84.0,463.5 L 83.0,463.5 L 82.0,463.5 L 81.0,463.5 L 80.0,463.5 L 79.0,463.5 L 78.0,463.5 L 77.0,463.5 L 76.5,463.0 L 76.0,462.5 L 75.0,462.5 L 74.0,462.5 L 73.5,462.0 L 73.0,461.5 L 72.0,461.5 L 71.0,461.5 L 70.5,461.0 L 70.0,460.5 L 69.0,460.5 L 68.5,460.0 L 68.0,459.5 L 67.0,459.5 L 66.5,459.0 L 66.0,458.5 L 65.0,458.5 L 64.5,458.0 L 64.0,457.5 L 63.5,457.0 L 63.0,456.5 L 62.0,456.5 L 61.5,456.0 L 61.0,455.5 L 60.5,455.0 L 60.0,454.5 L 59.5,454.0 L 59.0,453.5 L 58.5,453.0 L 58.0,452.5 L 57.5,452.0 L 57.0,451.5 L 56.5,451.0 L 56.0,450.5 L 55.5,450.0 L 55.0,449.5 L 54.5,449.0 L 54.5,448.0 L 54.0,447.5 L 53.5,447.0 L 53.0,446.5 L 52.5,446.0 L 52.5,445.0 L 52.0,444.5 L 51.5,444.0 L 51.5,443.0 L 51.0,442.5 L 50.5,442.0 L 50.5,441.0 L 50.0,440.5 L 49.5,440.0 L 49.5,439.0 L 49.5,438.0 L 49.0,437.5 L 48.5,437.0 L 48.5,436.0 L 48.5,435.0 L 48.0,434.5 L 47.5,434.0 L 47.5,433.0 L 47.5,432.0 L 47.5,431.0 L 47.5,430.0 L 47.5,429.0 L 47.5,428.0 L 47.5,427.0 L 47.5,426.0 L 47.5,425.0 L 47.5,424.0 L 47.5,423.0 L 47.5,422.0 L 47.5,421.0 L 47.5,420.0 L 47.5,419.0 L 47.5,418.0 L 47.5,417.0 L 47.5,416.0 L 47.5,415.0 L 47.5,414.0 L 47.5,413.0 L 47.5,412.0 L 47.5,411.0 L 47.5,410.0 L 47.5,409.0 L 47.5,408.0 L 47.5,407.0 L 47.5,406.0 L 47.5,405.0 L 47.5,404.0 L 47.5,403.0 L 47.5,402.0 L 47.5,401.0 L 47.5,400.0 L 47.5,399.0 L 47.5,398.0 L 47.5,397.0 L 47.5,396.0 L 47.5,395.0 L 47.5,394.0 L 47.5,393.0 L 47.5,392.0 L 47.5,391.0 L 47.5,390.0 L 47.5,389.0 L 47.5,388.0 L 47.5,387.0 L 47.5,386.0 L 47.5,385.0 L 47.5,384.0 L 47.5,383.0 L 47.5,382.0 L 47.5,381.0 L 47.5,380.0 L 47.5,379.0 L 47.5,378.0 L 47.5,377.0 L 47.5,376.0 L 47.5,375.0 L 47.5,374.0 L 47.5,373.0 L 47.5,372.0 L 47.5,371.0 L 47.5,370.0 L 47.5,369.0 L 47.5,368.0 L 47.5,367.0 L 47.5,366.0 L 47.5,365.0 L 47.5,364.0 L 47.5,363.0 L 47.5,362.0 L 47.5,361.0 L 47.5,360.0 L 47.5,359.0 L 47.5,358.0 L 47.5,357.0 L 47.5,356.0 L 47.5,355.0 L 47.5,354.0 L 47.5,353.0 L 47.5,352.0 L 47.5,351.0 L 47.5,350.0 L 47.5,349.0 L 47.5,348.0 L 47.5,347.0 L 47.5,346.0 L 47.5,345.0 L 47.5,344.0 L 47.5,343.0 L 47.5,342.0 L 47.5,341.0 L 47.5,340.0 L 47.5,339.0 L 47.5,338.0 L 47.5,337.0 L 47.5,336.0 L 47.5,335.0 L 47.5,334.0 L 47.5,333.0 L 47.5,332.0 L 47.5,331.0 L 47.5,330.0 L 47.5,329.0 L 47.5,328.0 L 47.5,327.0 L 47.5,326.0 L 47.5,325.0 L 47.5,324.0 L 47.5,323.0 L 47.5,322.0 L 47.5,321.0 L 47.5,320.0 L 47.5,319.0 L 47.5,318.0 L 47.5,317.0 L 47.5,316.0 L 47.5,315.0 L 48.0,314.5 L 48.5,314.0 L 48.5,313.0 L 48.5,312.0 L 49.0,311.5 L 49.5,311.0 L 50.0,310.5 L 50.5,310.0 L 50.5,309.0 L 51.0,308.5 L 51.5,308.0 L 52.0,307.5 L 52.5,307.0 L 53.0,306.5 L 54.0,306.5 L 54.5,306.0 L 55.0,305.5 L 55.5,305.0 L 56.0,304.5 L 57.0,304.5 L 58.0,304.5 L 58.5,304.0 L 59.0,303.5 L 60.0,303.5 L 61.0,303.5 L 62.0,303.5 L 63.0,303.5 L 64.0,303.5 L 65.0,303.5 L 66.0,303.5 L 67.0,303.5 L 68.0,303.5 L 68.5,304.0 L 69.0,304.5 L 70.0,304.5 L 71.0,304.5 L 71.5,305.0 L 72.0,305.5 L 72.5,306.0 L 73.0,306.5 L 74.0,306.5 L 74.5,307.0 L 75.0,307.5 L 75.5,308.0 L 76.0,308.5 L 76.5,309.0 L 76.5,310.0 L 77.0,310.5 L 77.5,311.0 L 78.0,311.5 L 78.5,312.0 L 78.5,313.0 L 78.5,314.0 L 79.0,314.5 L 79.5,315.0 L 79.5,316.0 L 79.5,317.0 L 79.5,318.0 L 79.5,319.0 L 79.5,320.0 L 79.5,321.0 L 79.5,322.0 L 79.5,323.0 L 79.5,324.0 L 79.5,325.0 L 79.5,326.0 L 79.5,327.0 L 79.5,328.0 L 79.5,329.0 L 79.5,330.0 L 79.5,331.0 L 79.5,332.0 L 79.5,333.0 L 79.5,334.0 L 79.5,335.0 L 79.5,336.0 L 79.5,337.0 L 79.5,338.0 L 79.5,339.0 L 79.5,340.0 L 79.5,341.0 L 79.5,342.0 L 79.5,343.0 L 79.5,344.0 L 79.5,345.0 L 79.5,346.0 L 79.5,347.0 L 79.5,348.0 L 79.5,349.0 L 79.5,350.0 L 79.5,351.0 L 79.5,352.0 L 79.5,353.0 L 79.5,354.0 L 79.5,355.0 L 79.5,356.0 L 79.5,357.0 L 79.5,358.0 L 79.5,359.0 L 79.5,360.0 L 79.5,361.0 L 79.5,362.0 L 79.5,363.0 L 79.5,364.0 L 79.5,365.0 L 79.5,366.0 L 79.5,367.0 L 79.5,368.0 L 79.5,369.0 L 79.5,370.0 L 79.5,371.0 L 79.5,372.0 L 79.5,373.0 L 79.5,374.0 L 79.5,375.0 L 79.5,376.0 L 79.5,377.0 L 79.5,378.0 L 79.5,379.0 L 79.5,380.0 L 79.5,381.0 L 79.5,382.0 L 79.5,383.0 L 79.5,384.0 L 79.5,385.0 L 79.5,386.0 L 79.5,387.0 L 79.5,388.0 L 79.5,389.0 L 79.5,390.0 L 79.5,391.0 L 79.5,392.0 L 79.5,393.0 L 79.5,394.0 L 79.5,395.0 L 79.5,396.0 L 79.5,397.0 L 79.5,398.0 L 79.5,399.0 L 79.5,400.0 L 79.5,401.0 L 79.5,402.0 L 79.5,403.0 L 79.5,404.0 L 79.5,405.0 L 79.5,406.0 L 79.5,407.0 L 79.5,408.0 L 79.5,409.0 L 79.5,410.0 L 79.5,411.0 L 79.5,412.0 L 79.5,413.0 L 79.5,414.0 L 79.5,415.0 L 79.5,416.0 L 79.5,417.0 L 79.5,418.0 L 79.5,419.0 L 79.5,420.0 L 79.5,421.0 L 79.5,422.0 L 79.5,423.0 L 79.5,424.0 L 79.5,425.0 L 79.5,426.0 L 80.0,426.5 L 80.5,427.0 L 80.5,428.0 L 80.5,429.0 L 81.0,429.5 L 81.5,430.0 L 82.0,430.5 L 83.0,430.5 L 84.0,430.5 L 84.5,431.0 L 85.0,431.5 L 86.0,431.5 L 87.0,431.5 L 88.0,431.5 L 89.0,431.5 L 90.0,431.5 L 91.0,431.5 L 92.0,431.5 L 93.0,431.5 L 94.0,431.5 L 95.0,431.5 L 96.0,431.5 L 97.0,431.5 L 98.0,431.5 L 99.0,431.5 L 100.0,431.5 L 101.0,431.5 L 102.0,431.5 L 103.0,431.5 L 104.0,431.5 L 105.0,431.5 L 106.0,431.5 L 107.0,431.5 L 108.0,431.5 L 109.0,431.5 L 110.0,431.5 L 111.0,431.5 L 112.0,431.5 L 113.0,431.5 L 114.0,431.5 L 115.0,431.5 L 116.0,431.5 L 117.0,431.5 L 118.0,431.5 L 119.0,431.5 L 120.0,431.5 L 121.0,431.5 L 122.0,431.5 L 123.0,431.5 L 124.0,431.5 L 125.0,431.5 L 126.0,431.5 L 127.0,431.5 L 128.0,431.5 L 129.0,431.5 L 130.0,431.5 L 131.0,431.5 L 132.0,431.5 L 133.0,431.5 L 134.0,431.5 L 135.0,431.5 L 136.0,431.5 L 137.0,431.5 L 138.0,431.5 L 139.0,431.5 L 140.0,431.5 L 141.0,431.5 L 142.0,431.5 L 143.0,431.5 L 144.0,431.5 L 145.0,431.5 L 146.0,431.5 L 147.0,431.5 L 148.0,431.5 L 149.0,431.5 L 150.0,431.5 L 151.0,431.5 L 152.0,431.5 L 153.0,431.5 L 154.0,431.5 L 155.0,431.5 L 156.0,431.5 L 157.0,431.5 L 158.0,431.5 L 159.0,431.5 L 160.0,431.5 L 161.0,431.5 L 162.0,431.5 L 163.0,431.5 L 164.0,431.5 L 165.0,431.5 L 166.0,431.5 L 167.0,431.5 L 168.0,431.5 L 169.0,431.5 L 170.0,431.5 L 171.0,431.5 L 172.0,431.5 L 173.0,431.5 L 174.0,431.5 L 175.0,431.5 L 176.0,431.5 L 177.0,431.5 L 178.0,431.5 L 179.0,431.5 L 180.0,431.5 L 181.0,431.5 L 182.0,431.5 L 183.0,431.5 L 184.0,431.5 L 185.0,431.5 L 186.0,431.5 L 187.0,431.5 L 188.0,431.5 L 189.0,431.5 L 190.0,431.5 L 191.0,431.5 L 192.0,431.5 L 193.0,431.5 L 194.0,431.5 L 195.0,431.5 L 196.0,431.5 L 196.5,432.0 L 197.0,432.5 L 198.0,432.5 L 199.0,432.5 L 199.5,433.0 L 200.0,433.5 L 200.5,434.0 L 201.0,434.5 L 202.0,434.5 L 202.5,435.0 L 203.0,435.5 L 203.5,436.0 L 204.0,436.5 L 204.5,437.0 L 204.5,438.0 L 205.0,438.5 L 205.5,439.0 L 206.0,439.5 L 206.5,440.0 L 206.5,441.0 L 206.5,442.0 L 207.0,442.5 L 207.5,443.0 L 207.5,444.0 L 207.5,445.0 L 207.5,446.0 L 207.5,447.0 L 207.5,448.0 L 207.5,449.0 L 207.5,450.0 L 207.5,451.0 L 207.5,452.0 L 207.0,452.5 L 206.5,453.0 L 206.5,454.0 L 206.5,455.0 L 206.0,455.5 L 205.5,456.0 L 205.0,456.5 L 204.5,457.0 L 204.5,458.0 L 204.0,458.5 L 203.5,459.0 L 203.0,459.5 L 202.5,460.0 L 202.0,460.5 L 201.0,460.5 L 200.5,461.0 L 200.0,461.5 L 199.5,462.0 L 199.0,462.5 L 198.0,462.5 L 197.0,462.5 L 196.5,463.0 L 196.0,463.5 Z" fill="#EF314C"/>
<path d="M 434.0,463.5 L 433.0,463.5 L 432.0,463.5 L 431.0,463.5 L 430.0,463.5 L 429.0,463.5 L 428.0,463.5 L 427.0,463.5 L 426.0,463.5 L 425.0,463.5 L 424.0,463.5 L 423.0,463.5 L 422.0,463.5 L 421.0,463.5 L 420.0,463.5 L 419.0,463.5 L 418.0,463.5 L 417.0,463.5 L 416.0,463.5 L 415.0,463.5 L 414.0,463.5 L 413.0,463.5 L 412.0,463.5 L 411.0,463.5 L 410.0,463.5 L 409.0,463.5 L 408.0,463.5 L 407.0,463.5 L 406.0,463.5 L 405.0,463.5 L 404.0,463.5 L 403.0,463.5 L 402.0,463.5 L 401.0,463.5 L 400.0,463.5 L 399.0,463.5 L 398.0,463.5 L 397.0,463.5 L 396.0,463.5 L 395.0,463.5 L 394.0,463.5 L 393.0,463.5 L 392.0,463.5 L 391.0,463.5 L 390.0,463.5 L 389.0,463.5 L 388.0,463.5 L 387.0,463.5 L 386.0,463.5 L 385.0,463.5 L 384.0,463.5 L 383.0,463.5 L 382.0,463.5 L 381.0,463.5 L 380.0,463.5 L 379.0,463.5 L 378.0,463.5 L 377.0,463.5 L 376.0,463.5 L 375.0,463.5 L 374.0,463.5 L 373.0,463.5 L 372.0,463.5 L 371.0,463.5 L 370.0,463.5 L 369.0,463.5 L 368.0,463.5 L 367.0,463.5 L 366.0,463.5 L 365.0,463.5 L 364.0,463.5 L 363.0,463.5 L 362.0,463.5 L 361.0,463.5 L 360.0,463.5 L 359.0,463.5 L 358.0,463.5 L 357.0,463.5 L 356.0,463.5 L 355.0,463.5 L 354.0,463.5 L 353.0,463.5 L 352.0,463.5 L 351.0,463.5 L 350.0,463.5 L 349.0,463.5 L 348.0,463.5 L 347.0,463.5 L 346.0,463.5 L 345.0,463.5 L 344.0,463.5 L 343.0,463.5 L 342.0,463.5 L 341.0,463.5 L 340.0,463.5 L 339.0,463.5 L 338.0,463.5 L 337.0,463.5 L 336.0,463.5 L 335.0,463.5 L 334.0,463.5 L 333.0,463.5 L 332.0,463.5 L 331.0,463.5 L 330.0,463.5 L 329.0,463.5 L 328.0,463.5 L 327.0,463.5 L 326.0,463.5 L 325.0,463.5 L 324.0,463.5 L 323.0,463.5 L 322.0,463.5 L 321.0,463.5 L 320.0,463.5 L 319.0,463.5 L 318.0,463.5 L 317.0,463.5 L 316.0,463.5 L 315.0,463.5 L 314.5,463.0 L 314.0,462.5 L 313.0,462.5 L 312.0,462.5 L 311.5,462.0 L 311.0,461.5 L 310.5,461.0 L 310.0,460.5 L 309.0,460.5 L 308.5,460.0 L 308.0,459.5 L 307.5,459.0 L 307.0,458.5 L 306.5,458.0 L 306.5,457.0 L 306.0,456.5 L 305.5,456.0 L 305.0,455.5 L 304.5,455.0 L 304.5,454.0 L 304.5,453.0 L 304.0,452.5 L 303.5,452.0 L 303.5,451.0 L 303.5,450.0 L 303.5,449.0 L 303.5,448.0 L 303.5,447.0 L 303.5,446.0 L 303.5,445.0 L 303.5,444.0 L 303.5,443.0 L 304.0,442.5 L 304.5,442.0 L 304.5,441.0 L 304.5,440.0 L 305.0,439.5 L 305.5,439.0 L 306.0,438.5 L 306.5,438.0 L 306.5,437.0 L 307.0,436.5 L 307.5,436.0 L 308.0,435.5 L 308.5,435.0 L 309.0,434.5 L 310.0,434.5 L 310.5,434.0 L 311.0,433.5 L 311.5,433.0 L 312.0,432.5 L 313.0,432.5 L 314.0,432.5 L 314.5,432.0 L 315.0,431.5 L 316.0,431.5 L 317.0,431.5 L 318.0,431.5 L 319.0,431.5 L 320.0,431.5 L 321.0,431.5 L 322.0,431.5 L 323.0,431.5 L 324.0,431.5 L 325.0,431.5 L 326.0,431.5 L 327.0,431.5 L 328.0,431.5 L 329.0,431.5 L 330.0,431.5 L 331.0,431.5 L 332.0,431.5 L 333.0,431.5 L 334.0,431.5 L 335.0,431.5 L 336.0,431.5 L 337.0,431.5 L 338.0,431.5 L 339.0,431.5 L 340.0,431.5 L 341.0,431.5 L 342.0,431.5 L 343.0,431.5 L 344.0,431.5 L 345.0,431.5 L 346.0,431.5 L 347.0,431.5 L 348.0,431.5 L 349.0,431.5 L 350.0,431.5 L 351.0,431.5 L 352.0,431.5 L 353.0,431.5 L 354.0,431.5 L 355.0,431.5 L 356.0,431.5 L 357.0,431.5 L 358.0,431.5 L 359.0,431.5 L 360.0,431.5 L 361.0,431.5 L 362.0,431.5 L 363.0,431.5 L 364.0,431.5 L 365.0,431.5 L 366.0,431.5 L 367.0,431.5 L 368.0,431.5 L 369.0,431.5 L 370.0,431.5 L 371.0,431.5 L 372.0,431.5 L 373.0,431.5 L 374.0,431.5 L 375.0,431.5 L 376.0,431.5 L 377.0,431.5 L 378.0,431.5 L 379.0,431.5 L 380.0,431.5 L 381.0,431.5 L 382.0,431.5 L 383.0,431.5 L 384.0,431.5 L 385.0,431.5 L 386.0,431.5 L 387.0,431.5 L 388.0,431.5 L 389.0,431.5 L 390.0,431.5 L 391.0,431.5 L 392.0,431.5 L 393.0,431.5 L 394.0,431.5 L 395.0,431.5 L 396.0,431.5 L 397.0,431.5 L 398.0,431.5 L 399.0,431.5 L 400.0,431.5 L 401.0,431.5 L 402.0,431.5 L 403.0,431.5 L 404.0,431.5 L 405.0,431.5 L 406.0,431.5 L 407.0,431.5 L 408.0,431.5 L 409.0,431.5 L 410.0,431.5 L 411.0,431.5 L 412.0,431.5 L 413.0,431.5 L 414.0,431.5 L 415.0,431.5 L 416.0,431.5 L 417.0,431.5 L 418.0,431.5 L 419.0,431.5 L 420.0,431.5 L 421.0,431.5 L 422.0,431.5 L 423.0,431.5 L 424.0,431.5 L 425.0,431.5 L 426.0,431.5 L 426.5,431.0 L 427.0,430.5 L 428.0,430.5 L 429.0,430.5 L 429.5,430.0 L 430.0,429.5 L 430.5,429.0 L 430.5,428.0 L 430.5,427.0 L 431.0,426.5 L 431.5,426.0 L 431.5,425.0 L 431.5,424.0 L 431.5,423.0 L 431.5,422.0 L 431.5,421.0 L 431.5,420.0 L 431.5,419.0 L 431.5,418.0 L 431.5,417.0 L 431.5,416.0 L 431.5,415.0 L 431.5,414.0 L 431.5,413.0 L 431.5,412.0 L 431.5,411.0 L 431.5,410.0 L 431.5,409.0 L 431.5,408.0 L 431.5,407.0 L 431.5,406.0 L 431.5,405.0 L 431.5,404.0 L 431.5,403.0 L 431.5,402.0 L 431.5,401.0 L 431.5,400.0 L 431.5,399.0 L 431.5,398.0 L 431.5,397.0 L 431.5,396.0 L 431.5,395.0 L 431.5,394.0 L 431.5,393.0 L 431.5,392.0 L 431.5,391.0 L 431.5,390.0 L 431.5,389.0 L 431.5,388.0 L 431.5,387.0 L 431.5,386.0 L 431.5,385.0 L 431.5,384.0 L 431.5,383.0 L 431.5,382.0 L 431.5,381.0 L 431.5,380.0 L 431.5,379.0 L 431.5,378.0 L 431.5,377.0 L 431.5,376.0 L 431.5,375.0 L 431.5,374.0 L 431.5,373.0 L 431.5,372.0 L 431.5,371.0 L 431.5,370.0 L 431.5,369.0 L 431.5,368.0 L 431.5,367.0 L 431.5,366.0 L 431.5,365.0 L 431.5,364.0 L 431.5,363.0 L 431.5,362.0 L 431.5,361.0 L 431.5,360.0 L 431.5,359.0 L 431.5,358.0 L 431.5,357.0 L 431.5,356.0 L 431.5,355.0 L 431.5,354.0 L 431.5,353.0 L 431.5,352.0 L 431.5,351.0 L 431.5,350.0 L 431.5,349.0 L 431.5,348.0 L 431.5,347.0 L 431.5,346.0 L 431.5,345.0 L 431.5,344.0 L 431.5,343.0 L 431.5,342.0 L 431.5,341.0 L 431.5,340.0 L 431.5,339.0 L 431.5,338.0 L 431.5,337.0 L 431.5,336.0 L 431.5,335.0 L 431.5,334.0 L 431.5,333.0 L 431.5,332.0 L 431.5,331.0 L 431.5,330.0 L 431.5,329.0 L 431.5,328.0 L 431.5,327.0 L 431.5,326.0 L 431.5,325.0 L 431.5,324.0 L 431.5,323.0 L 431.5,322.0 L 431.5,321.0 L 431.5,320.0 L 431.5,319.0 L 431.5,318.0 L 431.5,317.0 L 431.5,316.0 L 431.5,315.0 L 432.0,314.5 L 432.5,314.0 L 432.5,313.0 L 433.0,312.5 L 433.5,312.0 L 433.5,311.0 L 434.0,310.5 L 434.5,310.0 L 435.0,309.5 L 435.5,309.0 L 435.5,308.0 L 436.0,307.5 L 437.0,307.5 L 437.5,307.0 L 438.0,306.5 L 438.5,306.0 L 439.0,305.5 L 440.0,305.5 L 440.5,305.0 L 441.0,304.5 L 442.0,304.5 L 442.5,304.0 L 443.0,303.5 L 444.0,303.5 L 445.0,303.5 L 446.0,303.5 L 447.0,303.5 L 448.0,303.5 L 449.0,303.5 L 450.0,303.5 L 451.0,303.5 L 452.0,303.5 L 452.5,304.0 L 453.0,304.5 L 454.0,304.5 L 454.5,305.0 L 455.0,305.5 L 456.0,305.5 L 456.5,306.0 L 457.0,306.5 L 457.5,307.0 L 458.0,307.5 L 459.0,307.5 L 459.5,308.0 L 459.5,309.0 L 460.0,309.5 L 460.5,310.0 L 461.0,310.5 L 461.5,311.0 L 461.5,312.0 L 462.0,312.5 L 462.5,313.0 L 462.5,314.0 L 463.0,314.5 L 463.5,315.0 L 463.5,316.0 L 463.5,317.0 L 463.5,318.0 L 463.5,319.0 L 463.5,320.0 L 463.5,321.0 L 463.5,322.0 L 463.5,323.0 L 463.5,324.0 L 463.5,325.0 L 463.5,326.0 L 463.5,327.0 L 463.5,328.0 L 463.5,329.0 L 463.5,330.0 L 463.5,331.0 L 463.5,332.0 L 463.5,333.0 L 463.5,334.0 L 463.5,335.0 L 463.5,336.0 L 463.5,337.0 L 463.5,338.0 L 463.5,339.0 L 463.5,340.0 L 463.5,341.0 L 463.5,342.0 L 463.5,343.0 L 463.5,344.0 L 463.5,345.0 L 463.5,346.0 L 463.5,347.0 L 463.5,348.0 L 463.5,349.0 L 463.5,350.0 L 463.5,351.0 L 463.5,352.0 L 463.5,353.0 L 463.5,354.0 L 463.5,355.0 L 463.5,356.0 L 463.5,357.0 L 463.5,358.0 L 463.5,359.0 L 463.5,360.0 L 463.5,361.0 L 463.5,362.0 L 463.5,363.0 L 463.5,364.0 L 463.5,365.0 L 463.5,366.0 L 463.5,367.0 L 463.5,368.0 L 463.5,369.0 L 463.5,370.0 L 463.5,371.0 L 463.5,372.0 L 463.5,373.0 L 463.5,374.0 L 463.5,375.0 L 463.5,376.0 L 463.5,377.0 L 463.5,378.0 L 463.5,379.0 L 463.5,380.0 L 463.5,381.0 L 463.5,382.0 L 463.5,383.0 L 463.5,384.0 L 463.5,385.0 L 463.5,386.0 L 463.5,387.0 L 463.5,388.0 L 463.5,389.0 L 463.5,390.0 L 463.5,391.0 L 463.5,392.0 L 463.5,393.0 L 463.5,394.0 L 463.5,395.0 L 463.5,396.0 L 463.5,397.0 L 463.5,398.0 L 463.5,399.0 L 463.5,400.0 L 463.5,401.0 L 463.5,402.0 L 463.5,403.0 L 463.5,404.0 L 463.5,405.0 L 463.5,406.0 L 463.5,407.0 L 463.5,408.0 L 463.5,409.0 L 463.5,410.0 L 463.5,411.0 L 463.5,412.0 L 463.5,413.0 L 463.5,414.0 L 463.5,415.0 L 463.5,416.0 L 463.5,417.0 L 463.5,418.0 L 463.5,419.0 L 463.5,420.0 L 463.5,421.0 L 463.5,422.0 L 463.5,423.0 L 463.5,424.0 L 463.5,425.0 L 463.5,426.0 L 463.5,427.0 L 463.5,428.0 L 463.5,429.0 L 463.5,430.0 L 463.5,431.0 L 463.5,432.0 L 463.5,433.0 L 463.5,434.0 L 463.0,434.5 L 462.5,435.0 L 462.5,436.0 L 462.5,437.0 L 462.0,437.5 L 461.5,438.0 L 461.5,439.0 L 461.5,440.0 L 461.0,440.5 L 460.5,441.0 L 460.5,442.0 L 460.0,442.5 L 459.5,443.0 L 459.5,444.0 L 459.0,444.5 L 458.5,445.0 L 458.5,446.0 L 458.0,446.5 L 457.5,447.0 L 457.0,447.5 L 456.5,448.0 L 456.5,449.0 L 456.0,449.5 L 455.5,450.0 L 455.0,450.5 L 454.5,451.0 L 454.0,451.5 L 453.5,452.0 L 453.0,452.5 L 452.5,453.0 L 452.0,453.5 L 451.5,454.0 L 451.0,454.5 L 450.5,455.0 L 450.0,455.5 L 449.5,456.0 L 449.0,456.5 L 448.0,456.5 L 447.5,457.0 L 447.0,457.5 L 446.5,458.0 L 446.0,458.5 L 445.0,458.5 L 444.5,459.0 L 444.0,459.5 L 443.0,459.5 L 442.5,460.0 L 442.0,460.5 L 441.0,460.5 L 440.5,461.0 L 440.0,461.5 L 439.0,461.5 L 438.0,461.5 L 437.5,462.0 L 437.0,462.5 L 436.0,462.5 L 435.0,462.5 L 434.5,463.0 L 434.0,463.5 Z" fill="#EF314C"/>
<path d="M 196.5,367.0 L 196.5,366.0 L 196.5,365.0 L 196.5,364.0 L 196.5,363.0 L 196.5,362.0 L 196.5,361.0 L 196.5,360.0 L 196.5,359.0 L 196.5,358.0 L 196.5,357.0 L 196.5,356.0 L 196.5,355.0 L 196.5,354.0 L 196.5,353.0 L 196.5,352.0 L 196.5,351.0 L 196.5,350.0 L 196.5,349.0 L 196.5,348.0 L 196.5,347.0 L 196.5,346.0 L 196.5,345.0 L 196.5,344.0 L 196.5,343.0 L 196.5,342.0 L 196.5,341.0 L 196.5,340.0 L 196.5,339.0 L 196.5,338.0 L 196.5,337.0 L 196.5,336.0 L 196.5,335.0 L 196.5,334.0 L 196.5,333.0 L 196.5,332.0 L 196.5,331.0 L 196.5,330.0 L 196.5,329.0 L 196.5,328.0 L 196.5,327.0 L 196.5,326.0 L 196.5,325.0 L 196.5,324.0 L 196.5,323.0 L 196.5,322.0 L 196.5,321.0 L 196.5,320.0 L 196.5,319.0 L 196.5,318.0 L 196.5,317.0 L 196.5,316.0 L 196.5,315.0 L 196.0,314.5 L 195.0,314.5 L 194.0,314.5 L 193.0,314.5 L 192.0,314.5 L 191.0,314.5 L 190.0,314.5 L 189.0,314.5 L 188.0,314.5 L 187.0,314.5 L 186.0,314.5 L 185.0,314.5 L 184.0,314.5 L 183.0,314.5 L 182.0,314.5 L 181.0,314.5 L 180.0,314.5 L 179.0,314.5 L 178.0,314.5 L 177.0,314.5 L 176.0,314.5 L 175.0,314.5 L 174.0,314.5 L 173.0,314.5 L 172.0,314.5 L 171.0,314.5 L 170.0,314.5 L 169.0,314.5 L 168.0,314.5 L 167.0,314.5 L 166.0,314.5 L 165.0,314.5 L 164.0,314.5 L 163.0,314.5 L 162.0,314.5 L 161.0,314.5 L 160.0,314.5 L 159.0,314.5 L 158.0,314.5 L 157.0,314.5 L 156.0,314.5 L 155.0,314.5 L 154.0,314.5 L 153.0,314.5 L 152.0,314.5 L 151.0,314.5 L 150.0,314.5 L 149.0,314.5 L 148.0,314.5 L 147.0,314.5 L 146.0,314.5 L 145.0,314.5 L 144.0,314.5 L 143.5,315.0 L 143.5,316.0 L 143.5,317.0 L 143.5,318.0 L 143.5,319.0 L 143.5,320.0 L 143.5,321.0 L 143.5,322.0 L 143.5,323.0 L 143.5,324.0 L 143.5,325.0 L 143.5,326.0 L 143.5,327.0 L 143.5,328.0 L 143.5,329.0 L 143.5,330.0 L 143.5,331.0 L 143.5,332.0 L 143.5,333.0 L 143.5,334.0 L 143.5,335.0 L 143.5,336.0 L 143.5,337.0 L 143.5,338.0 L 143.5,339.0 L 143.5,340.0 L 143.5,341.0 L 143.5,342.0 L 143.5,343.0 L 143.5,344.0 L 143.5,345.0 L 143.5,346.0 L 143.5,347.0 L 143.5,348.0 L 143.5,349.0 L 143.5,350.0 L 143.5,351.0 L 143.5,352.0 L 143.5,353.0 L 143.5,354.0 L 143.5,355.0 L 143.5,356.0 L 143.5,357.0 L 143.5,358.0 L 143.5,359.0 L 143.5,360.0 L 143.5,361.0 L 143.5,362.0 L 143.5,363.0 L 143.5,364.0 L 143.5,365.0 L 143.5,366.0 L 143.5,367.0 L 144.0,367.5 L 145.0,367.5 L 146.0,367.5 L 147.0,367.5 L 148.0,367.5 L 149.0,367.5 L 150.0,367.5 L 151.0,367.5 L 152.0,367.5 L 153.0,367.5 L 154.0,367.5 L 155.0,367.5 L 156.0,367.5 L 157.0,367.5 L 158.0,367.5 L 159.0,367.5 L 160.0,367.5 L 161.0,367.5 L 162.0,367.5 L 163.0,367.5 L 164.0,367.5 L 165.0,367.5 L 166.0,367.5 L 167.0,367.5 L 168.0,367.5 L 169.0,367.5 L 170.0,367.5 L 171.0,367.5 L 172.0,367.5 L 173.0,367.5 L 174.0,367.5 L 175.0,367.5 L 176.0,367.5 L 177.0,367.5 L 178.0,367.5 L 179.0,367.5 L 180.0,367.5 L 181.0,367.5 L 182.0,367.5 L 183.0,367.5 L 184.0,367.5 L 185.0,367.5 L 186.0,367.5 L 187.0,367.5 L 188.0,367.5 L 189.0,367.5 L 190.0,367.5 L 191.0,367.5 L 192.0,367.5 L 193.0,367.5 L 194.0,367.5 L 195.0,367.5 L 196.0,367.5 L 196.5,367.0 Z" fill="#EF314C"/>
<path d="M 388.0,399.5 L 387.0,399.5 L 386.0,399.5 L 385.0,399.5 L 384.0,399.5 L 383.0,399.5 L 382.0,399.5 L 381.0,399.5 L 380.0,399.5 L 379.0,399.5 L 378.0,399.5 L 377.0,399.5 L 376.0,399.5 L 375.0,399.5 L 374.0,399.5 L 373.0,399.5 L 372.0,399.5 L 371.0,399.5 L 370.0,399.5 L 369.0,399.5 L 368.0,399.5 L 367.0,399.5 L 366.0,399.5 L 365.0,399.5 L 364.0,399.5 L 363.0,399.5 L 362.0,399.5 L 361.0,399.5 L 360.0,399.5 L 359.0,399.5 L 358.0,399.5 L 357.0,399.5 L 356.0,399.5 L 355.0,399.5 L 354.0,399.5 L 353.0,399.5 L 352.0,399.5 L 351.0,399.5 L 350.0,399.5 L 349.0,399.5 L 348.0,399.5 L 347.0,399.5 L 346.0,399.5 L 345.0,399.5 L 344.0,399.5 L 343.0,399.5 L 342.0,399.5 L 341.0,399.5 L 340.0,399.5 L 339.0,399.5 L 338.0,399.5 L 337.0,399.5 L 336.0,399.5 L 335.0,399.5 L 334.0,399.5 L 333.0,399.5 L 332.0,399.5 L 331.0,399.5 L 330.0,399.5 L 329.0,399.5 L 328.0,399.5 L 327.0,399.5 L 326.0,399.5 L 325.0,399.5 L 324.0,399.5 L 323.0,399.5 L 322.0,399.5 L 321.0,399.5 L 320.0,399.5 L 319.0,399.5 L 318.0,399.5 L 317.0,399.5 L 316.0,399.5 L 315.0,399.5 L 314.5,399.0 L 314.0,398.5 L 313.0,398.5 L 312.0,398.5 L 311.5,398.0 L 311.0,397.5 L 310.5,397.0 L 310.0,396.5 L 309.0,396.5 L 308.5,396.0 L 308.0,395.5 L 307.5,395.0 L 307.0,394.5 L 306.5,394.0 L 306.5,393.0 L 306.0,392.5 L 305.5,392.0 L 305.0,391.5 L 304.5,391.0 L 304.5,390.0 L 304.5,389.0 L 304.0,388.5 L 303.5,388.0 L 303.5,387.0 L 303.5,386.0 L 303.5,385.0 L 303.5,384.0 L 303.5,383.0 L 303.5,382.0 L 303.5,381.0 L 303.5,380.0 L 303.5,379.0 L 304.0,378.5 L 304.5,378.0 L 304.5,377.0 L 304.5,376.0 L 305.0,375.5 L 305.5,375.0 L 306.0,374.5 L 306.5,374.0 L 306.5,373.0 L 307.0,372.5 L 307.5,372.0 L 308.0,371.5 L 308.5,371.0 L 309.0,370.5 L 310.0,370.5 L 310.5,370.0 L 311.0,369.5 L 311.5,369.0 L 312.0,368.5 L 313.0,368.5 L 314.0,368.5 L 314.5,368.0 L 315.0,367.5 L 316.0,367.5 L 317.0,367.5 L 318.0,367.5 L 319.0,367.5 L 320.0,367.5 L 321.0,367.5 L 322.0,367.5 L 323.0,367.5 L 324.0,367.5 L 325.0,367.5 L 326.0,367.5 L 327.0,367.5 L 328.0,367.5 L 329.0,367.5 L 330.0,367.5 L 331.0,367.5 L 332.0,367.5 L 333.0,367.5 L 334.0,367.5 L 335.0,367.5 L 336.0,367.5 L 337.0,367.5 L 338.0,367.5 L 339.0,367.5 L 340.0,367.5 L 341.0,367.5 L 342.0,367.5 L 343.0,367.5 L 344.0,367.5 L 345.0,367.5 L 346.0,367.5 L 347.0,367.5 L 348.0,367.5 L 349.0,367.5 L 350.0,367.5 L 351.0,367.5 L 352.0,367.5 L 353.0,367.5 L 354.0,367.5 L 355.0,367.5 L 356.0,367.5 L 357.0,367.5 L 358.0,367.5 L 359.0,367.5 L 360.0,367.5 L 361.0,367.5 L 362.0,367.5 L 363.0,367.5 L 364.0,367.5 L 365.0,367.5 L 366.0,367.5 L 367.0,367.5 L 368.0,367.5 L 369.0,367.5 L 370.0,367.5 L 371.0,367.5 L 372.0,367.5 L 373.0,367.5 L 374.0,367.5 L 375.0,367.5 L 376.0,367.5 L 377.0,367.5 L 378.0,367.5 L 379.0,367.5 L 380.0,367.5 L 381.0,367.5 L 382.0,367.5 L 383.0,367.5 L 384.0,367.5 L 385.0,367.5 L 386.0,367.5 L 387.0,367.5 L 388.0,367.5 L 388.5,368.0 L 389.0,368.5 L 390.0,368.5 L 391.0,368.5 L 391.5,369.0 L 392.0,369.5 L 392.5,370.0 L 393.0,370.5 L 394.0,370.5 L 394.5,371.0 L 395.0,371.5 L 395.5,372.0 L 396.0,372.5 L 396.5,373.0 L 396.5,374.0 L 397.0,374.5 L 397.5,375.0 L 398.0,375.5 L 398.5,376.0 L 398.5,377.0 L 398.5,378.0 L 399.0,378.5 L 399.5,379.0 L 399.5,380.0 L 399.5,381.0 L 399.5,382.0 L 399.5,383.0 L 399.5,384.0 L 399.5,385.0 L 399.5,386.0 L 399.5,387.0 L 399.5,388.0 L 399.0,388.5 L 398.5,389.0 L 398.5,390.0 L 398.5,391.0 L 398.0,391.5 L 397.5,392.0 L 397.0,392.5 L 396.5,393.0 L 396.5,394.0 L 396.0,394.5 L 395.5,395.0 L 395.0,395.5 L 394.5,396.0 L 394.0,396.5 L 393.0,396.5 L 392.5,397.0 L 392.0,397.5 L 391.5,398.0 L 391.0,398.5 L 390.0,398.5 L 389.0,398.5 L 388.5,399.0 L 388.0,399.5 Z" fill="#EF314C"/>
<path d="M 196.0,196.5 L 195.0,196.5 L 194.0,196.5 L 193.0,196.5 L 192.0,196.5 L 191.0,196.5 L 190.0,196.5 L 189.0,196.5 L 188.0,196.5 L 187.0,196.5 L 186.0,196.5 L 185.0,196.5 L 184.0,196.5 L 183.0,196.5 L 182.0,196.5 L 181.0,196.5 L 180.0,196.5 L 179.0,196.5 L 178.0,196.5 L 177.0,196.5 L 176.0,196.5 L 175.0,196.5 L 174.0,196.5 L 173.0,196.5 L 172.0,196.5 L 171.0,196.5 L 170.0,196.5 L 169.0,196.5 L 168.0,196.5 L 167.0,196.5 L 166.0,196.5 L 165.0,196.5 L 164.0,196.5 L 163.0,196.5 L 162.0,196.5 L 161.0,196.5 L 160.0,196.5 L 159.0,196.5 L 158.0,196.5 L 157.0,196.5 L 156.0,196.5 L 155.0,196.5 L 154.0,196.5 L 153.0,196.5 L 152.0,196.5 L 151.0,196.5 L 150.0,196.5 L 149.0,196.5 L 148.0,196.5 L 147.0,196.5 L 146.0,196.5 L 145.0,196.5 L 144.0,196.5 L 143.5,196.0 L 143.5,195.0 L 143.5,194.0 L 143.5,193.0 L 143.5,192.0 L 143.5,191.0 L 143.5,190.0 L 143.5,189.0 L 143.5,188.0 L 143.5,187.0 L 143.5,186.0 L 143.5,185.0 L 143.5,184.0 L 143.5,183.0 L 143.5,182.0 L 143.5,181.0 L 143.5,180.0 L 143.5,179.0 L 143.5,178.0 L 143.5,177.0 L 143.5,176.0 L 143.5,175.0 L 143.5,174.0 L 143.5,173.0 L 143.5,172.0 L 143.5,171.0 L 143.5,170.0 L 143.5,169.0 L 143.5,168.0 L 143.5,167.0 L 143.5,166.0 L 143.5,165.0 L 143.5,164.0 L 143.5,163.0 L 143.5,162.0 L 143.5,161.0 L 143.5,160.0 L 143.5,159.0 L 143.5,158.0 L 143.5,157.0 L 143.5,156.0 L 143.5,155.0 L 143.5,154.0 L 143.5,153.0 L 143.5,152.0 L 143.5,151.0 L 143.5,150.0 L 143.5,149.0 L 143.5,148.0 L 143.5,147.0 L 143.5,146.0 L 143.5,145.0 L 143.5,144.0 L 144.0,143.5 L 145.0,143.5 L 146.0,143.5 L 147.0,143.5 L 148.0,143.5 L 149.0,143.5 L 150.0,143.5 L 151.0,143.5 L 152.0,143.5 L 153.0,143.5 L 154.0,143.5 L 155.0,143.5 L 156.0,143.5 L 157.0,143.5 L 158.0,143.5 L 159.0,143.5 L 160.0,143.5 L 161.0,143.5 L 162.0,143.5 L 163.0,143.5 L 164.0,143.5 L 165.0,143.5 L 166.0,143.5 L 167.0,143.5 L 168.0,143.5 L 169.0,143.5 L 170.0,143.5 L 171.0,143.5 L 172.0,143.5 L 173.0,143.5 L 174.0,143.5 L 175.0,143.5 L 176.0,143.5 L 177.0,143.5 L 178.0,143.5 L 179.0,143.5 L 180.0,143.5 L 181.0,143.5 L 182.0,143.5 L 183.0,143.5 L 184.0,143.5 L 185.0,143.5 L 186.0,143.5 L 187.0,143.5 L 188.0,143.5 L 189.0,143.5 L 190.0,143.5 L 191.0,143.5 L 192.0,143.5 L 193.0,143.5 L 194.0,143.5 L 195.0,143.5 L 196.0,143.5 L 196.5,144.0 L 196.5,145.0 L 196.5,146.0 L 196.5,147.0 L 196.5,148.0 L 196.5,149.0 L 196.5,150.0 L 196.5,151.0 L 196.5,152.0 L 196.5,153.0 L 196.5,154.0 L 196.5,155.0 L 196.5,156.0 L 196.5,157.0 L 196.5,158.0 L 196.5,159.0 L 196.5,160.0 L 196.5,161.0 L 196.5,162.0 L 196.5,163.0 L 196.5,164.0 L 196.5,165.0 L 196.5,166.0 L 196.5,167.0 L 196.5,168.0 L 196.5,169.0 L 196.5,170.0 L 196.5,171.0 L 196.5,172.0 L 196.5,173.0 L 196.5,174.0 L 196.5,175.0 L 196.5,176.0 L 196.5,177.0 L 196.5,178.0 L 196.5,179.0 L 196.5,180.0 L 196.5,181.0 L 196.5,182.0 L 196.5,183.0 L 196.5,184.0 L 196.5,185.0 L 196.5,186.0 L 196.5,187.0 L 196.5,188.0 L 196.5,189.0 L 196.5,190.0 L 196.5,191.0 L 196.5,192.0 L 196.5,193.0 L 196.5,194.0 L 196.5,195.0 L 196.5,196.0 L 196.0,196.5 Z" fill="#F7C1C9"/>
<path d="M 367.0,196.5 L 366.0,196.5 L 365.0,196.5 L 364.0,196.5 L 363.0,196.5 L 362.0,196.5 L 361.0,196.5 L 360.0,196.5 L 359.0,196.5 L 358.0,196.5 L 357.0,196.5 L 356.0,196.5 L 355.0,196.5 L 354.0,196.5 L 353.0,196.5 L 352.0,196.5 L 351.0,196.5 L 350.0,196.5 L 349.0,196.5 L 348.0,196.5 L 347.0,196.5 L 346.0,196.5 L 345.0,196.5 L 344.0,196.5 L 343.0,196.5 L 342.0,196.5 L 341.0,196.5 L 340.0,196.5 L 339.0,196.5 L 338.0,196.5 L 337.0,196.5 L 336.0,196.5 L 335.0,196.5 L 334.0,196.5 L 333.0,196.5 L 332.0,196.5 L 331.0,196.5 L 330.0,196.5 L 329.0,196.5 L 328.0,196.5 L 327.0,196.5 L 326.0,196.5 L 325.0,196.5 L 324.0,196.5 L 323.0,196.5 L 322.0,196.5 L 321.0,196.5 L 320.0,196.5 L 319.0,196.5 L 318.0,196.5 L 317.0,196.5 L 316.0,196.5 L 315.0,196.5 L 314.5,196.0 L 314.5,195.0 L 314.5,194.0 L 314.5,193.0 L 314.5,192.0 L 314.5,191.0 L 314.5,190.0 L 314.5,189.0 L 314.5,188.0 L 314.5,187.0 L 314.5,186.0 L 314.5,185.0 L 314.5,184.0 L 314.5,183.0 L 314.5,182.0 L 314.5,181.0 L 314.5,180.0 L 314.5,179.0 L 314.5,178.0 L 314.5,177.0 L 314.5,176.0 L 314.5,175.0 L 314.5,174.0 L 314.5,173.0 L 314.5,172.0 L 314.5,171.0 L 314.5,170.0 L 314.5,169.0 L 314.5,168.0 L 314.5,167.0 L 314.5,166.0 L 314.5,165.0 L 314.5,164.0 L 314.5,163.0 L 314.5,162.0 L 314.5,161.0 L 314.5,160.0 L 314.5,159.0 L 314.5,158.0 L 314.5,157.0 L 314.5,156.0 L 314.5,155.0 L 314.5,154.0 L 314.5,153.0 L 314.5,152.0 L 314.5,151.0 L 314.5,150.0 L 314.5,149.0 L 314.5,148.0 L 314.5,147.0 L 314.5,146.0 L 314.5,145.0 L 314.5,144.0 L 315.0,143.5 L 316.0,143.5 L 317.0,143.5 L 318.0,143.5 L 319.0,143.5 L 320.0,143.5 L 321.0,143.5 L 322.0,143.5 L 323.0,143.5 L 324.0,143.5 L 325.0,143.5 L 326.0,143.5 L 327.0,143.5 L 328.0,143.5 L 329.0,143.5 L 330.0,143.5 L 331.0,143.5 L 332.0,143.5 L 333.0,143.5 L 334.0,143.5 L 335.0,143.5 L 336.0,143.5 L 337.0,143.5 L 338.0,143.5 L 339.0,143.5 L 340.0,143.5 L 341.0,143.5 L 342.0,143.5 L 343.0,143.5 L 344.0,143.5 L 345.0,143.5 L 346.0,143.5 L 347.0,143.5 L 348.0,143.5 L 349.0,143.5 L 350.0,143.5 L 351.0,143.5 L 352.0,143.5 L 353.0,143.5 L 354.0,143.5 L 355.0,143.5 L 356.0,143.5 L 357.0,143.5 L 358.0,143.5 L 359.0,143.5 L 360.0,143.5 L 361.0,143.5 L 362.0,143.5 L 363.0,143.5 L 364.0,143.5 L 365.0,143.5 L 366.0,143.5 L 367.0,143.5 L 367.5,144.0 L 367.5,145.0 L 367.5,146.0 L 367.5,147.0 L 367.5,148.0 L 367.5,149.0 L 367.5,150.0 L 367.5,151.0 L 367.5,152.0 L 367.5,153.0 L 367.5,154.0 L 367.5,155.0 L 367.5,156.0 L 367.5,157.0 L 367.5,158.0 L 367.5,159.0 L 367.5,160.0 L 367.5,161.0 L 367.5,162.0 L 367.5,163.0 L 367.5,164.0 L 367.5,165.0 L 367.5,166.0 L 367.5,167.0 L 367.5,168.0 L 367.5,169.0 L 367.5,170.0 L 367.5,171.0 L 367.5,172.0 L 367.5,173.0 L 367.5,174.0 L 367.5,175.0 L 367.5,176.0 L 367.5,177.0 L 367.5,178.0 L 367.5,179.0 L 367.5,180.0 L 367.5,181.0 L 367.5,182.0 L 367.5,183.0 L 367.5,184.0 L 367.5,185.0 L 367.5,186.0 L 367.5,187.0 L 367.5,188.0 L 367.5,189.0 L 367.5,190.0 L 367.5,191.0 L 367.5,192.0 L 367.5,193.0 L 367.5,194.0 L 367.5,195.0 L 367.5,196.0 L 367.0,196.5 Z" fill="#F7C1C9"/>
<path d="M 196.0,367.5 L 195.0,367.5 L 194.0,367.5 L 193.0,367.5 L 192.0,367.5 L 191.0,367.5 L 190.0,367.5 L 189.0,367.5 L 188.0,367.5 L 187.0,367.5 L 186.0,367.5 L 185.0,367.5 L 184.0,367.5 L 183.0,367.5 L 182.0,367.5 L 181.0,367.5 L 180.0,367.5 L 179.0,367.5 L 178.0,367.5 L 177.0,367.5 L 176.0,367.5 L 175.0,367.5 L 174.0,367.5 L 173.0,367.5 L 172.0,367.5 L 171.0,367.5 L 170.0,367.5 L 169.0,367.5 L 168.0,367.5 L 167.0,367.5 L 166.0,367.5 L 165.0,367.5 L 164.0,367.5 L 163.0,367.5 L 162.0,367.5 L 161.0,367.5 L 160.0,367.5 L 159.0,367.5 L 158.0,367.5 L 157.0,367.5 L 156.0,367.5 L 155.0,367.5 L 154.0,367.5 L 153.0,367.5 L 152.0,367.5 L 151.0,367.5 L 150.0,367.5 L 149.0,367.5 L 148.0,367.5 L 147.0,367.5 L 146.0,367.5 L 145.0,367.5 L 144.0,367.5 L 143.5,367.0 L 143.5,366.0 L 143.5,365.0 L 143.5,364.0 L 143.5,363.0 L 143.5,362.0 L 143.5,361.0 L 143.5,360.0 L 143.5,359.0 L 143.5,358.0 L 143.5,357.0 L 143.5,356.0 L 143.5,355.0 L 143.5,354.0 L 143.5,353.0 L 143.5,352.0 L 143.5,351.0 L 143.5,350.0 L 143.5,349.0 L 143.5,348.0 L 143.5,347.0 L 143.5,346.0 L 143.5,345.0 L 143.5,344.0 L 143.5,343.0 L 143.5,342.0 L 143.5,341.0 L 143.5,340.0 L 143.5,339.0 L 143.5,338.0 L 143.5,337.0 L 143.5,336.0 L 143.5,335.0 L 143.5,334.0 L 143.5,333.0 L 143.5,332.0 L 143.5,331.0 L 143.5,330.0 L 143.5,329.0 L 143.5,328.0 L 143.5,327.0 L 143.5,326.0 L 143.5,325.0 L 143.5,324.0 L 143.5,323.0 L 143.5,322.0 L 143.5,321.0 L 143.5,320.0 L 143.5,319.0 L 143.5,318.0 L 143.5,317.0 L 143.5,316.0 L 143.5,315.0 L 144.0,314.5 L 145.0,314.5 L 146.0,314.5 L 147.0,314.5 L 148.0,314.5 L 149.0,314.5 L 150.0,314.5 L 151.0,314.5 L 152.0,314.5 L 153.0,314.5 L 154.0,314.5 L 155.0,314.5 L 156.0,314.5 L 157.0,314.5 L 158.0,314.5 L 159.0,314.5 L 160.0,314.5 L 161.0,314.5 L 162.0,314.5 L 163.0,314.5 L 164.0,314.5 L 165.0,314.5 L 166.0,314.5 L 167.0,314.5 L 168.0,314.5 L 169.0,314.5 L 170.0,314.5 L 171.0,314.5 L 172.0,314.5 L 173.0,314.5 L 174.0,314.5 L 175.0,314.5 L 176.0,314.5 L 177.0,314.5 L 178.0,314.5 L 179.0,314.5 L 180.0,314.5 L 181.0,314.5 L 182.0,314.5 L 183.0,314.5 L 184.0,314.5 L 185.0,314.5 L 186.0,314.5 L 187.0,314.5 L 188.0,314.5 L 189.0,314.5 L 190.0,314.5 L 191.0,314.5 L 192.0,314.5 L 193.0,314.5 L 194.0,314.5 L 195.0,314.5 L 196.0,314.5 L 196.5,315.0 L 196.5,316.0 L 196.5,317.0 L 196.5,318.0 L 196.5,319.0 L 196.5,320.0 L 196.5,321.0 L 196.5,322.0 L 196.5,323.0 L 196.5,324.0 L 196.5,325.0 L 196.5,326.0 L 196.5,327.0 L 196.5,328.0 L 196.5,329.0 L 196.5,330.0 L 196.5,331.0 L 196.5,332.0 L 196.5,333.0 L 196.5,334.0 L 196.5,335.0 L 196.5,336.0 L 196.5,337.0 L 196.5,338.0 L 196.5,339.0 L 196.5,340.0 L 196.5,341.0 L 196.5,342.0 L 196.5,343.0 L 196.5,344.0 L 196.5,345.0 L 196.5,346.0 L 196.5,347.0 L 196.5,348.0 L 196.5,349.0 L 196.5,350.0 L 196.5,351.0 L 196.5,352.0 L 196.5,353.0 L 196.5,354.0 L 196.5,355.0 L 196.5,356.0 L 196.5,357.0 L 196.5,358.0 L 196.5,359.0 L 196.5,360.0 L 196.5,361.0 L 196.5,362.0 L 196.5,363.0 L 196.5,364.0 L 196.5,365.0 L 196.5,366.0 L 196.5,367.0 L 196.0,367.5 Z" fill="#F7C1C9"/>
</svg>